<?xml version="1.0" encoding="utf-8"?>
<svg id="master-artboard" viewBox="0 0 1400 980" version="1.1" xmlns="http://www.w3.org/2000/svg" x="0px" y="0px" width="1400px" height="980px" enable-background="new 0 0 1400 980" xmlns:xlink="http://www.w3.org/1999/xlink">
<g transform="matrix(1, 0, 0, 1, 4.9734055566911834, 2.1584232044251)">
		<path d="M -11.768 -14.915 H 1412.232 V 995.085 H -11.768 V -14.915 Z" fill="#F4E3D7" style="fill-opacity: 0;"/>
	</g>
<path fill="#FEC099" d="M702.519,226.571c-0.25,7.73,0,558.74,0,558.74s101.513,167.79,218.966,36.914&#10;&#9;&#9;&#9;c0,0,125.843-8.39,110.741-129.198c0,0,75.506-82.217,11.745-162.756c0,0,20.135-98.996-57.048-137.588&#10;&#9;&#9;&#9;c0,0,18.456-114.097-88.929-142.622c0,0-10.067-75.505-92.285-80.539C805.709,169.522,708.811,31.935,702.519,226.571z" transform="matrix(1, 0, 0, 1, 0, -1.4210854715202004e-14)" style="fill: rgb(212, 140, 210);"/><path fill="#EC6B6F" d="M986.923,392.683c0,0,18.456-114.097-88.929-142.622c0,0-0.278-2.068-1.107-5.53h-25.762v-15.374&#10;&#9;&#9;&#9;c0-15.287-4.241-29.582-11.605-41.78c-13.11-9.382-30.578-16.433-53.811-17.855c0,0-7.277-10.334-17.974-21.331h-73.02&#10;&#9;&#9;&#9;c-6.495,16.211-10.996,41.243-12.197,78.38c-0.25,7.73,0,558.74,0,558.74s16.667,27.546,44.306,51.61h39.749&#10;&#9;&#9;&#9;c25.006-41.332,47.998-95.74,65.295-167.208c21.887-90.429,100.389-139.145,194.427-164.08&#10;&#9;&#9;&#9;C1046.976,473.725,1039.713,419.078,986.923,392.683z" transform="matrix(1, 0, 0, 1, 0, -1.4210854715202004e-14)" style="fill: rgb(166, 116, 211);"/><path fill="#FB9904" d="M921.4,258.446c-7.05-3.272-14.822-6.104-23.406-8.385c0,0-10.067-75.505-92.285-80.539&#10;&#9;&#9;&#9;c0,0-18.823-26.724-40.415-39.954h-38.976c-12.511,12.002-21.973,40.502-23.8,97.003c-0.143,4.409-0.122,185.539-0.079,340.374&#10;&#9;&#9;&#9;c33.159-35.469,66.387-92.495,88.354-183.255C806.419,319.126,857.459,280.653,921.4,258.446z" transform="matrix(1, 0, 0, 1, 0, -1.4210854715202004e-14)" style="fill: rgb(79, 51, 161);"/><path fill="#FD6804" d="M805.709,169.522c0,0-96.898-137.587-103.19,57.049c-0.072,2.252-0.103,50.622-0.109,118.036&#10;&#9;&#9;&#9;c22.362-19.651,46.216-54.797,61.172-116.592c6.311-26.074,22.467-44.892,44.157-58.339&#10;&#9;&#9;&#9;C807.062,169.624,806.395,169.564,805.709,169.522z" transform="matrix(1, 0, 0, 1, 0, -1.4210854715202004e-14)" style="fill: rgb(38, 18, 130);"/><defs>
				<path id="SVGID_3_" d="M702.519,226.571c-0.25,7.73,0,558.74,0,558.74s101.513,167.79,218.966,36.914&#10;&#9;&#9;&#9;&#9;&#9;c0,0,125.843-8.39,110.741-129.198c0,0,75.506-82.217,11.745-162.756c0,0,20.135-98.996-57.048-137.588&#10;&#9;&#9;&#9;&#9;&#9;c0,0,18.456-114.097-88.929-142.622c0,0-10.067-75.505-92.285-80.539C805.709,169.522,708.811,31.935,702.519,226.571z"/>
			<linearGradient id="gradient-0" gradientUnits="objectBoundingBox" x1="0.5" y1="0" x2="0.5" y2="1">
                <stop offset="0" style="stop-color: #c6d2b6"/>
                <stop offset="1" style="stop-color: #95ab77"/>
              </linearGradient><linearGradient id="gradient-1" gradientUnits="objectBoundingBox" x1="0.5" y1="0" x2="0.5" y2="1">
                <stop offset="0" style="stop-color: #c6d2b6"/>
                <stop offset="1" style="stop-color: #95ab77"/>
              </linearGradient><linearGradient id="gradient-2" gradientUnits="objectBoundingBox" x1="0.5" y1="0" x2="0.5" y2="1">
                <stop offset="0" style="stop-color: #c6d2b6"/>
                <stop offset="1" style="stop-color: #95ab77"/>
              </linearGradient><linearGradient id="gradient-3" gradientUnits="objectBoundingBox" x1="0.5" y1="0" x2="0.5" y2="1">
                <stop offset="0" style="stop-color: #c6d2b6"/>
                <stop offset="1" style="stop-color: #95ab77"/>
              </linearGradient><linearGradient id="gradient-4" gradientUnits="objectBoundingBox" x1="0.5" y1="0" x2="0.5" y2="1">
                <stop offset="0" style="stop-color: #c6d2b6"/>
                <stop offset="1" style="stop-color: #95ab77"/>
              </linearGradient><linearGradient id="gradient-5" gradientUnits="objectBoundingBox" x1="0.5" y1="0" x2="0.5" y2="1">
                <stop offset="0" style="stop-color: #c6d2b6"/>
                <stop offset="1" style="stop-color: #95ab77"/>
              </linearGradient><linearGradient id="gradient-6" gradientUnits="objectBoundingBox" x1="0.5" y1="0" x2="0.5" y2="1">
                <stop offset="0" style="stop-color: #c6d2b6"/>
                <stop offset="1" style="stop-color: #95ab77"/>
              </linearGradient><linearGradient id="gradient-7" gradientUnits="objectBoundingBox" x1="0.5" y1="0" x2="0.5" y2="1">
                <stop offset="0" style="stop-color: #c6d2b6"/>
                <stop offset="1" style="stop-color: #95ab77"/>
              </linearGradient><linearGradient id="gradient-8" gradientUnits="objectBoundingBox" x1="0.5" y1="0" x2="0.5" y2="1">
                <stop offset="0" style="stop-color: #c6d2b6"/>
                <stop offset="1" style="stop-color: #95ab77"/>
              </linearGradient><linearGradient id="gradient-9" gradientUnits="objectBoundingBox" x1="0.5" y1="0" x2="0.5" y2="1">
                <stop offset="0" style="stop-color: #c6d2b6"/>
                <stop offset="1" style="stop-color: #95ab77"/>
              </linearGradient><linearGradient id="gradient-10" gradientUnits="objectBoundingBox" x1="0.5" y1="0" x2="0.5" y2="1">
                <stop offset="0" style="stop-color: #c6d2b6"/>
                <stop offset="1" style="stop-color: #95ab77"/>
              </linearGradient><linearGradient id="gradient-11" gradientUnits="objectBoundingBox" x1="0.5" y1="0" x2="0.5" y2="1">
                <stop offset="0" style="stop-color: #c6d2b6"/>
                <stop offset="1" style="stop-color: #95ab77"/>
              </linearGradient><linearGradient id="gradient-12" gradientUnits="objectBoundingBox" x1="0.5" y1="0" x2="0.5" y2="1">
                <stop offset="0" style="stop-color: #c6d2b6"/>
                <stop offset="1" style="stop-color: #95ab77"/>
              </linearGradient><linearGradient id="gradient-13" gradientUnits="objectBoundingBox" x1="0.5" y1="0" x2="0.5" y2="1">
                <stop offset="0" style="stop-color: #c6d2b6"/>
                <stop offset="1" style="stop-color: #95ab77"/>
              </linearGradient><linearGradient id="gradient-14" gradientUnits="objectBoundingBox" x1="0.5" y1="0" x2="0.5" y2="1">
                <stop offset="0" style="stop-color: #c6d2b6"/>
                <stop offset="1" style="stop-color: #95ab77"/>
              </linearGradient><linearGradient id="gradient-15" gradientUnits="objectBoundingBox" x1="0.5" y1="0" x2="0.5" y2="1">
                <stop offset="0" style="stop-color: #c6d2b6"/>
                <stop offset="1" style="stop-color: #95ab77"/>
              </linearGradient><linearGradient id="gradient-16" gradientUnits="objectBoundingBox" x1="0.5" y1="0" x2="0.5" y2="1">
                <stop offset="0" style="stop-color: #c6d2b6"/>
                <stop offset="1" style="stop-color: #95ab77"/>
              </linearGradient><linearGradient id="gradient-17" gradientUnits="objectBoundingBox" x1="0.5" y1="0" x2="0.5" y2="1">
                <stop offset="0" style="stop-color: #c6d2b6"/>
                <stop offset="1" style="stop-color: #95ab77"/>
              </linearGradient><linearGradient id="gradient-18" gradientUnits="objectBoundingBox" x1="0.5" y1="0" x2="0.5" y2="1">
                <stop offset="0" style="stop-color: #c6d2b6"/>
                <stop offset="1" style="stop-color: #95ab77"/>
              </linearGradient><linearGradient id="gradient-19" gradientUnits="objectBoundingBox" x1="0.5" y1="0" x2="0.5" y2="1">
                <stop offset="0" style="stop-color: #c6d2b6"/>
                <stop offset="1" style="stop-color: #95ab77"/>
              </linearGradient><linearGradient id="gradient-20" gradientUnits="objectBoundingBox" x1="0.5" y1="0" x2="0.5" y2="1">
                <stop offset="0" style="stop-color: #c6d2b6"/>
                <stop offset="1" style="stop-color: #95ab77"/>
              </linearGradient><linearGradient id="gradient-21" gradientUnits="objectBoundingBox" x1="0.5" y1="0" x2="0.5" y2="1">
                <stop offset="0" style="stop-color: #c6d2b6"/>
                <stop offset="1" style="stop-color: #95ab77"/>
              </linearGradient><linearGradient id="gradient-22" gradientUnits="objectBoundingBox" x1="0.5" y1="0" x2="0.5" y2="1">
                <stop offset="0" style="stop-color: #c6d2b6"/>
                <stop offset="1" style="stop-color: #95ab77"/>
              </linearGradient><linearGradient id="gradient-23" gradientUnits="objectBoundingBox" x1="0.5" y1="0" x2="0.5" y2="1">
                <stop offset="0" style="stop-color: #c6d2b6"/>
                <stop offset="1" style="stop-color: #95ab77"/>
              </linearGradient><linearGradient id="gradient-24" gradientUnits="objectBoundingBox" x1="0.5" y1="0" x2="0.5" y2="1">
                <stop offset="0" style="stop-color: #c6d2b6"/>
                <stop offset="1" style="stop-color: #95ab77"/>
              </linearGradient><linearGradient id="gradient-25" gradientUnits="objectBoundingBox" x1="0.5" y1="0" x2="0.5" y2="1">
                <stop offset="0" style="stop-color: #c6d2b6"/>
                <stop offset="1" style="stop-color: #95ab77"/>
              </linearGradient><linearGradient id="gradient-26" gradientUnits="objectBoundingBox" x1="0.5" y1="0" x2="0.5" y2="1">
                <stop offset="0" style="stop-color: #c6d2b6"/>
                <stop offset="1" style="stop-color: #95ab77"/>
              </linearGradient><linearGradient id="gradient-27" gradientUnits="objectBoundingBox" x1="0.5" y1="0" x2="0.5" y2="1">
                <stop offset="0" style="stop-color: #c6d2b6"/>
                <stop offset="1" style="stop-color: #95ab77"/>
              </linearGradient><linearGradient id="gradient-28" gradientUnits="objectBoundingBox" x1="0.5" y1="0" x2="0.5" y2="1">
                <stop offset="0" style="stop-color: #c6d2b6"/>
                <stop offset="1" style="stop-color: #95ab77"/>
              </linearGradient><linearGradient id="gradient-29" gradientUnits="objectBoundingBox" x1="0.5" y1="0" x2="0.5" y2="1">
                <stop offset="0" style="stop-color: #c6d2b6"/>
                <stop offset="1" style="stop-color: #95ab77"/>
              </linearGradient><linearGradient id="gradient-30" gradientUnits="objectBoundingBox" x1="0.5" y1="0" x2="0.5" y2="1">
                <stop offset="0" style="stop-color: #c6d2b6"/>
                <stop offset="1" style="stop-color: #95ab77"/>
              </linearGradient><linearGradient id="gradient-31" gradientUnits="objectBoundingBox" x1="0.5" y1="0" x2="0.5" y2="1">
                <stop offset="0" style="stop-color: #c6d2b6"/>
                <stop offset="1" style="stop-color: #95ab77"/>
              </linearGradient><linearGradient id="gradient-32" gradientUnits="objectBoundingBox" x1="0.5" y1="0" x2="0.5" y2="1">
                <stop offset="0" style="stop-color: #c6d2b6"/>
                <stop offset="1" style="stop-color: #95ab77"/>
              </linearGradient><linearGradient id="gradient-33" gradientUnits="objectBoundingBox" x1="0.5" y1="0" x2="0.5" y2="1">
                <stop offset="0" style="stop-color: #c6d2b6"/>
                <stop offset="1" style="stop-color: #95ab77"/>
              </linearGradient><linearGradient id="gradient-34" gradientUnits="objectBoundingBox" x1="0.5" y1="0" x2="0.5" y2="1">
                <stop offset="0" style="stop-color: #36b293"/>
                <stop offset="1" style="stop-color: #1e6452"/>
              </linearGradient><linearGradient id="gradient-35" gradientUnits="objectBoundingBox" x1="0.5" y1="0" x2="0.5" y2="1">
                <stop offset="0" style="stop-color: #36b293"/>
                <stop offset="1" style="stop-color: #1e6452"/>
              </linearGradient><linearGradient id="gradient-36" gradientUnits="objectBoundingBox" x1="0.5" y1="0" x2="0.5" y2="1">
                <stop offset="0" style="stop-color: #36b293"/>
                <stop offset="1" style="stop-color: #1e6452"/>
              </linearGradient><linearGradient id="gradient-37" gradientUnits="objectBoundingBox" x1="0.5" y1="0" x2="0.5" y2="1">
                <stop offset="0" style="stop-color: #36b293"/>
                <stop offset="1" style="stop-color: #1e6452"/>
              </linearGradient><linearGradient id="gradient-38" gradientUnits="objectBoundingBox" x1="0.5" y1="0" x2="0.5" y2="1">
                <stop offset="0" style="stop-color: #36b293"/>
                <stop offset="1" style="stop-color: #1e6452"/>
              </linearGradient><linearGradient id="gradient-39" gradientUnits="objectBoundingBox" x1="0.5" y1="0" x2="0.5" y2="1" gradientTransform="matrix(0.9981224493944915, -0.02998934513337133, 0.13034231645913721, 1.0400443189564619, 0.0009387126324868933, 0.014994672629540233)">
                <stop offset="0" style="stop-color: #36b293"/>
                <stop offset="1" style="stop-color: #1e6452"/>
              </linearGradient><linearGradient id="gradient-40" gradientUnits="objectBoundingBox" x1="0.5" y1="0" x2="0.5" y2="1" gradientTransform="matrix(0.9999997401190747, -7.717757427028182e-7, -1.0895289084995874e-9, 0.015010367804096942, -0.8879352696756404, 0.4924948457117658)">
                <stop offset="0" style="stop-color: #36b293"/>
                <stop offset="1" style="stop-color: #1e6452"/>
              </linearGradient><linearGradient id="gradient-41" gradientUnits="objectBoundingBox" x1="0.5" y1="0" x2="0.5" y2="1" gradientTransform="matrix(0.1926441069100763, -3.0876656550095887, 0.6888074411597361, 0.4255074843456451, 0.14226319470459112, 2.340288573899936)">
                <stop offset="0" style="stop-color: #36b293"/>
                <stop offset="1" style="stop-color: #1e6452"/>
              </linearGradient><linearGradient id="gradient-42" gradientUnits="objectBoundingBox" x1="0.5" y1="0" x2="0.5" y2="1" gradientTransform="matrix(-0.6601451560496416, 1.246838709596977, -0.15208566964385373, -0.2218703129913795, 1.3045806959146007, -0.08821983436690939)">
                <stop offset="0" style="stop-color: #36b293"/>
                <stop offset="1" style="stop-color: #1e6452"/>
              </linearGradient><linearGradient id="gradient-43" gradientUnits="objectBoundingBox" x1="0.5" y1="0" x2="0.5" y2="1" gradientTransform="matrix(-0.8880482546323921, 0.37644276552668365, -0.10492484185088273, -0.16594471111087683, 0.764152489357715, 0.4499799199692171)">
                <stop offset="0" style="stop-color: #36b293"/>
                <stop offset="1" style="stop-color: #1e6452"/>
              </linearGradient><linearGradient id="gradient-44" gradientUnits="objectBoundingBox" x1="0.4184599816799164" y1="0.04613196477293968" x2="0.4184599816799164" y2="1.04613196849823">
                <stop offset="0" style="stop-color: #36b293"/>
                <stop offset="1" style="stop-color: #1e6452"/>
              </linearGradient><linearGradient id="gradient-45" gradientUnits="objectBoundingBox" x1="0.03664445877075195" y1="-1.0274280309677124" x2="0.03664432838559151" y2="-0.02742772176861763" gradientTransform="matrix(0.5364681369467377, -0.3396005591859623, 0.2419222584588141, 0.06188493207847223, -1.285747105201274, 0.7185090760941408)">
                <stop offset="0" style="stop-color: #36b293"/>
                <stop offset="1" style="stop-color: #1e6452"/>
              </linearGradient><linearGradient id="gradient-46" gradientUnits="objectBoundingBox" x1="0.5" y1="0" x2="0.5" y2="1" gradientTransform="matrix(0.9081143241983884, -1.0514285465833844, 0.07151359715857729, 0.38945245293745295, 0.04594307851031143, 0.525714286542529)">
                <stop offset="0" style="stop-color: #36b293"/>
                <stop offset="1" style="stop-color: #1e6452"/>
              </linearGradient><linearGradient id="gradient-47" gradientUnits="objectBoundingBox" x1="0.5" y1="0" x2="0.5" y2="1" gradientTransform="matrix(0.472115449318593, 15.43960635716937, -0.20664404723618762, 1.9383291704871066, 1.021638901011834, -10.534784148966736)">
                <stop offset="0" style="stop-color: #36b293"/>
                <stop offset="1" style="stop-color: #1e6452"/>
              </linearGradient><linearGradient id="gradient-48" gradientUnits="objectBoundingBox" x1="0.5" y1="0" x2="0.5" y2="1" gradientTransform="matrix(-0.654193721503687, -1.0321760132671196, 0.10177198883299544, -0.12013471907644857, 0.6632265455869657, 1.6944862605971325)">
                <stop offset="0" style="stop-color: #36b293"/>
                <stop offset="1" style="stop-color: #1e6452"/>
              </linearGradient><linearGradient id="gradient-49" gradientUnits="objectBoundingBox" x1="0.5" y1="0" x2="0.5" y2="1" gradientTransform="matrix(0.3797489530795404, -3.567984478702929, 0.19338334755748365, 0.3061758827400419, -0.46340758126652515, 1.4370799838989665)">
                <stop offset="0" style="stop-color: #36b293"/>
                <stop offset="1" style="stop-color: #1e6452"/>
              </linearGradient><linearGradient id="gradient-50" gradientUnits="objectBoundingBox" x1="0.29482558369636536" y1="0.8518999814987183" x2="0.29482555389404297" y2="1.8518998622894287" gradientTransform="matrix(0.7375220220394906, 1.8549839108627975, -0.6631306582623766, 1.9892578452329062, 1.3219621477506693, -3.8432007367165104)">
                <stop offset="0" style="stop-color: #36b293"/>
                <stop offset="1" style="stop-color: #1e6452"/>
              </linearGradient><linearGradient id="gradient-51" gradientUnits="objectBoundingBox" x1="0.35092893242836" y1="-0.37109479308128357" x2="0.35092893242836" y2="0.6289052367210388" gradientTransform="matrix(0.9988957047462463, -0.04914897680282593, 0.026453852653503418, 0.5883579254150391, 0.0005521476268768311, 0.024574488401412964)">
                <stop offset="0" style="stop-color: #36b293"/>
                <stop offset="1" style="stop-color: #1e6452"/>
              </linearGradient><linearGradient id="gradient-52" gradientUnits="objectBoundingBox" x1="0.5" y1="0" x2="0.5" y2="1" gradientTransform="matrix(0.5179629087977289, -13.11175544602537, 0.09367764592246797, 0.8694632720490176, -0.4232411390121269, 6.686414331754378)">
                <stop offset="0" style="stop-color: #36b293"/>
                <stop offset="1" style="stop-color: #1e6452"/>
              </linearGradient><linearGradient id="gradient-53" gradientUnits="objectBoundingBox" x1="0.08695497363805771" y1="-0.13858157396316528" x2="0.08695491403341293" y2="0.8614185452461243" gradientTransform="matrix(0.26506624274684754, 3.108730904262778, -1.2496709061443525, 1.1075707954014717, 1.2683218223565156, -1.3490038684036811)">
                <stop offset="0" style="stop-color: #36b293"/>
                <stop offset="1" style="stop-color: #1e6452"/>
              </linearGradient><linearGradient id="gradient-54" gradientUnits="objectBoundingBox" x1="0.5" y1="0" x2="0.5" y2="1" gradientTransform="matrix(-0.999999612569809, 0, 0, -0.019348494735652366, 0.9999995976686478, -3.725019155353948e-7)">
                <stop offset="0" style="stop-color: #36b293"/>
                <stop offset="1" style="stop-color: #1e6452"/>
              </linearGradient><linearGradient id="gradient-55" gradientUnits="objectBoundingBox" x1="0.5" y1="0" x2="0.5" y2="1" gradientTransform="matrix(-0.2199261288697209, -3.0695645513570535, 0.09958672776836416, -0.07064557596444362, 1.1078962137299084, 2.5923712142342064)">
                <stop offset="0" style="stop-color: #36b293"/>
                <stop offset="1" style="stop-color: #1e6452"/>
              </linearGradient><linearGradient id="gradient-56" gradientUnits="objectBoundingBox" x1="0.6562208533287048" y1="0.49604684114456177" x2="0.6562208533287048" y2="1.496046781539917" gradientTransform="matrix(-0.9294333310869121, 0.6124977214985172, -0.15208605218226445, -0.6358919094791693, 0.7396292790574694, 0.1279693175220631)">
                <stop offset="0" style="stop-color: #36b293"/>
                <stop offset="1" style="stop-color: #1e6452"/>
              </linearGradient><linearGradient id="gradient-57" gradientUnits="objectBoundingBox" x1="0.5" y1="0" x2="0.5" y2="1" gradientTransform="matrix(-0.9964519152119031, -0.06890747205005571, 0.04496758074889401, -0.4359529546361639, 1.0431933173220163, -0.002365437833901085)">
                <stop offset="0" style="stop-color: #36b293"/>
                <stop offset="1" style="stop-color: #1e6452"/>
              </linearGradient><linearGradient id="gradient-58" gradientUnits="objectBoundingBox" x1="0.4605731666088104" y1="0.17362897098064423" x2="0.4605732560157776" y2="1.173628568649292" gradientTransform="matrix(-0.7675643427088228, 0.846148854183892, -0.5572187878656754, -0.8808588043692784, 0.41125912442846185, 0.7584089920813908)">
                <stop offset="0" style="stop-color: #36b293"/>
                <stop offset="1" style="stop-color: #1e6452"/>
              </linearGradient><linearGradient id="gradient-59" gradientUnits="objectBoundingBox" x1="0.745194137096405" y1="0.017378833144903183" x2="0.745194137096405" y2="1.0173786878585815" gradientTransform="matrix(0.9716633390912701, -0.09511947370568252, 0.5938110258547535, 0.9822999147421986, 0.5639907783445048, -0.17369382886669782)">
                <stop offset="0" style="stop-color: #36b293"/>
                <stop offset="1" style="stop-color: #1e6452"/>
              </linearGradient><linearGradient id="gradient-60" gradientUnits="objectBoundingBox" x1="0.4111296534538269" y1="0.6014547348022461" x2="0.41112950444221497" y2="1.6014552116394043" gradientTransform="matrix(-0.39791129242396917, -2.3036798315202374, 0.8295568575420136, -0.9034736503463809, 0.627442317108724, 1.3314134919804688)">
                <stop offset="0" style="stop-color: #36b293"/>
                <stop offset="1" style="stop-color: #1e6452"/>
              </linearGradient><linearGradient id="gradient-61" gradientUnits="objectBoundingBox" x1="0.5" y1="0" x2="0.5" y2="1" gradientTransform="matrix(0.021904212898274267, -17.510214424426984, 0.16072380937460373, 0.0616710826245761, 1.30797231824695, 9.157246155756184)">
                <stop offset="0" style="stop-color: #36b293"/>
                <stop offset="1" style="stop-color: #1e6452"/>
              </linearGradient><linearGradient id="gradient-62" gradientUnits="objectBoundingBox" x1="0.5" y1="0" x2="0.5" y2="1" gradientTransform="matrix(0.09014910343662041, -1.3591652302218051, 0.2057004416147823, 0.025411022011994078, 0.8934949238271801, 1.193360514550477)">
                <stop offset="0" style="stop-color: #36b293"/>
                <stop offset="1" style="stop-color: #1e6452"/>
              </linearGradient><linearGradient id="gradient-63" gradientUnits="objectBoundingBox" x1="0.5" y1="0" x2="0.5" y2="1" gradientTransform="matrix(-0.48732539850493856, 3.367928396927595, -0.026983903378914535, -0.058082519621406654, 0.10055087040846947, -1.0942132542254686)">
                <stop offset="0" style="stop-color: #36b293"/>
                <stop offset="1" style="stop-color: #1e6452"/>
              </linearGradient><linearGradient id="gradient-64" gradientUnits="objectBoundingBox" x1="0.5" y1="0" x2="0.5" y2="1" gradientTransform="matrix(0.7410328013752174, 1.8443916028077754, -1.086162426971903, 3.292566581233217, 0.47819884503611565, -1.8800491186646298)">
                <stop offset="0" style="stop-color: #36b293"/>
                <stop offset="1" style="stop-color: #1e6452"/>
              </linearGradient><linearGradient id="gradient-65" gradientUnits="objectBoundingBox" x1="0.5" y1="0" x2="0.5" y2="1" gradientTransform="matrix(0.9270341694355011, 0.3922632932662964, -0.40672867000102997, 1.0518876314163208, 0.03648291528224945, -0.1961316466331482)">
                <stop offset="0" style="stop-color: #36b293"/>
                <stop offset="1" style="stop-color: #1e6452"/>
              </linearGradient><linearGradient id="gradient-66" gradientUnits="objectBoundingBox" x1="0.5" y1="0" x2="0.5" y2="1" gradientTransform="matrix(-0.9363811259262222, 5.379944418392483, -0.04258076462771232, -1.7412722110548202, 0.45722156479362797, -4.778560168369552)">
                <stop offset="0" style="stop-color: #36b293"/>
                <stop offset="1" style="stop-color: #1e6452"/>
              </linearGradient><linearGradient id="gradient-67" gradientUnits="objectBoundingBox" x1="0.32487988471984863" y1="-5.6326165199279785" x2="0.3248801529407501" y2="-4.632616996765137" gradientTransform="matrix(0.8168637718696155, 1.8597334325086052, -0.42464605484580625, 1.9387993905453396, -2.081421215084309, 10.306544372304767)">
                <stop offset="0" style="stop-color: #36b293"/>
                <stop offset="1" style="stop-color: #1e6452"/>
              </linearGradient></defs><clipPath id="SVGID_4_">
				<use overflow="visible" xlink:href="#SVGID_3_"/>
			</clipPath><g transform="matrix(1, 0, 0, 1, 0, -2.1316282072803006e-14)">
					<g>
						<path fill="#EC6B6F" d="M702.431,539.789h67.525c11.936,0,21.646,9.711,21.646,21.647v1.169&#10;&#9;&#9;&#9;&#9;&#9;&#9;&#9;c0,8.076,6.57,14.647,14.646,14.647h15.085c8.076,0,14.646-6.571,14.646-14.647v-56.779c0-1.933,1.567-3.5,3.5-3.5&#10;&#9;&#9;&#9;&#9;&#9;&#9;&#9;s3.5,1.567,3.5,3.5v56.779c0,11.937-9.711,21.647-21.646,21.647h-15.085c-11.936,0-21.646-9.711-21.646-21.647v-1.169&#10;&#9;&#9;&#9;&#9;&#9;&#9;&#9;c0-8.076-6.57-14.647-14.646-14.647h-67.523C702.433,544.459,702.432,542.125,702.431,539.789z" style="fill: rgb(237, 164, 200);"/>
					</g>
					<g>
						<path fill="#EC6B6F" d="M900.541,472.934H788.103c-1.933,0-3.5-1.567-3.5-3.5s1.567-3.5,3.5-3.5h112.438&#10;&#9;&#9;&#9;&#9;&#9;&#9;&#9;c8.076,0,14.646-6.571,14.646-14.647v-26.691c0-11.936,9.711-21.646,21.647-21.646h57.814c3.632,2.195,7.013,4.536,10.166,7&#10;&#9;&#9;&#9;&#9;&#9;&#9;&#9;h-67.98c-8.076,0-14.647,6.57-14.647,14.646v26.691C922.188,463.223,912.477,472.934,900.541,472.934z" style="fill: rgb(237, 164, 200);"/>
					</g>
					<g>
						<path fill="#EC6B6F" d="M702.409,346.052h128.558c11.936,0,21.646,9.71,21.646,21.646v65.342c0,1.933-1.567,3.5-3.5,3.5&#10;&#9;&#9;&#9;&#9;&#9;&#9;&#9;s-3.5-1.567-3.5-3.5v-65.342c0-8.076-6.57-14.646-14.646-14.646H702.409C702.409,350.695,702.409,348.363,702.409,346.052z" style="fill: rgb(237, 164, 200);"/>
					</g>
					<g>
						<path fill="#EC6B6F" d="M905.794,280.386c-8.076,0-14.646,6.57-14.646,14.646v51.308c0,1.933-1.567,3.5-3.5,3.5&#10;&#9;&#9;&#9;&#9;&#9;&#9;&#9;s-3.5-1.567-3.5-3.5v-51.308c0-11.936,9.711-21.646,21.646-21.646h31.577c3.334,2.225,6.457,4.562,9.376,7H905.794z" style="fill: rgb(237, 164, 200);"/>
					</g>
					<g>
						<path fill="#EC6B6F" d="M702.421,298.955h92.153c8.076,0,14.646-6.57,14.646-14.646v-61.061c0-1.933,1.567-3.5,3.5-3.5&#10;&#9;&#9;&#9;&#9;&#9;&#9;&#9;s3.5,1.567,3.5,3.5v61.061c0,11.936-9.711,21.646-21.646,21.646h-92.156C702.419,303.578,702.42,301.241,702.421,298.955z" style="fill: rgb(237, 164, 200);"/>
					</g>
					<g>
						<path fill="#EC6B6F" d="M770.035,157.694c-8.076,0-14.647,6.571-14.647,14.647v80.877c0,1.933-1.567,3.5-3.5,3.5&#10;&#9;&#9;&#9;&#9;&#9;&#9;&#9;s-3.5-1.567-3.5-3.5v-80.877c0-11.936,9.711-21.647,21.647-21.647h14.198c2.423,2.349,4.707,4.712,6.819,7H770.035z" style="fill: rgb(237, 164, 200);"/>
					</g>
					<g>
						<g>
							<path fill="#EC6B6F" d="M770.035,436.541h102.627c1.933,0,3.5-1.567,3.5-3.5s-1.567-3.5-3.5-3.5H770.035&#10;&#9;&#9;&#9;&#9;&#9;&#9;&#9;&#9;c-8.076,0-14.647-6.57-14.647-14.646v-25.739c0-1.933-1.567-3.5-3.5-3.5s-3.5,1.567-3.5,3.5v25.739&#10;&#9;&#9;&#9;&#9;&#9;&#9;&#9;&#9;C748.388,426.83,758.099,436.541,770.035,436.541z" style="fill: rgb(237, 164, 200);"/>
						</g>
					</g>
					<g>
						<g>
							<path fill="#EC6B6F" d="M757.062,509.326h115.601c1.933,0,3.5-1.566,3.5-3.5c0-1.933-1.567-3.5-3.5-3.5H757.062&#10;&#9;&#9;&#9;&#9;&#9;&#9;&#9;&#9;c-1.933,0-3.5,1.567-3.5,3.5C753.562,507.76,755.129,509.326,757.062,509.326z" style="fill: rgb(237, 164, 200);"/>
						</g>
					</g>
					<g>
						<path fill="#EC6B6F" d="M808.775,672.805c0-1.933,1.567-3.5,3.5-3.5h122.518c8.076,0,14.646-6.57,14.646-14.646V525.436&#10;&#9;&#9;&#9;&#9;&#9;&#9;&#9;c0-11.936,9.711-21.646,21.647-21.646h69.624c1.933,0,3.5,1.567,3.5,3.5c0,1.934-1.567,3.5-3.5,3.5h-69.624&#10;&#9;&#9;&#9;&#9;&#9;&#9;&#9;c-8.076,0-14.647,6.57-14.647,14.646v129.223c0,11.936-9.711,21.646-21.646,21.646H812.275&#10;&#9;&#9;&#9;&#9;&#9;&#9;&#9;C810.343,676.305,808.775,674.738,808.775,672.805z" style="fill: rgb(237, 164, 200);"/>
					</g>
					<g>
						<path fill="#EC6B6F" d="M702.472,672.023c-0.001-2.312-0.002-4.646-0.003-7h31.272c8.076,0,14.646-6.571,14.646-14.647&#10;&#9;&#9;&#9;&#9;&#9;&#9;&#9;v-10.803c0-11.936,9.711-21.646,21.647-21.646h137.578c1.933,0,3.5,1.566,3.5,3.5c0,1.933-1.567,3.5-3.5,3.5H770.035&#10;&#9;&#9;&#9;&#9;&#9;&#9;&#9;c-8.076,0-14.647,6.57-14.647,14.646v10.803c0,11.937-9.711,21.647-21.646,21.647H702.472z" style="fill: rgb(237, 164, 200);"/>
					</g>
					<g>
						<path fill="#EC6B6F" d="M908.303,744.255v-17.876c0-1.933,1.567-3.5,3.5-3.5s3.5,1.567,3.5,3.5v17.876&#10;&#9;&#9;&#9;&#9;&#9;&#9;&#9;c0,8.076,6.57,14.646,14.646,14.646h96.526c-0.927,2.417-1.934,4.748-3.013,7h-93.514&#10;&#9;&#9;&#9;&#9;&#9;&#9;&#9;C918.014,765.901,908.303,756.19,908.303,744.255z" style="fill: rgb(237, 164, 200);"/>
					</g>
					<g>
						<path fill="#EC6B6F" d="M886.896,691.901h112.489c8.076,0,14.646-6.57,14.646-14.646v-55.667&#10;&#9;&#9;&#9;&#9;&#9;&#9;&#9;c0-11.936,9.711-21.646,21.646-21.646h33.684c0.138,2.354,0.197,4.688,0.183,7h-33.866c-8.076,0-14.646,6.57-14.646,14.646&#10;&#9;&#9;&#9;&#9;&#9;&#9;&#9;v55.667c0,11.936-9.711,21.646-21.646,21.646H886.896c-8.076,0-14.646,6.571-14.646,14.647v78.187c0,1.933-1.567,3.5-3.5,3.5&#10;&#9;&#9;&#9;&#9;&#9;&#9;&#9;s-3.5-1.567-3.5-3.5v-78.187C865.249,701.612,874.96,691.901,886.896,691.901z" style="fill: rgb(237, 164, 200);"/>
					</g>
					<g>
						<path fill="#EC6B6F" d="M702.502,751.724h103.797c1.933,0,3.5,1.566,3.5,3.5c0,1.933-1.567,3.5-3.5,3.5H702.505&#10;&#9;&#9;&#9;&#9;&#9;&#9;&#9;C702.504,756.488,702.503,754.155,702.502,751.724z" style="fill: rgb(237, 164, 200);"/>
					</g>
					<g>
						<path fill="#EC6B6F" d="M761.547,828.059v-43.935c0-1.934,1.567-3.5,3.5-3.5s3.5,1.566,3.5,3.5v43.935&#10;&#9;&#9;&#9;&#9;&#9;&#9;&#9;c0,8.076,6.57,14.646,14.646,14.646h62.181c8.076,0,14.647-6.57,14.647-14.646c0-11.937,9.711-21.646,21.646-21.646h99.76&#10;&#9;&#9;&#9;&#9;&#9;&#9;&#9;c1.173,0,2.205,0.582,2.841,1.468c-3.371,2.035-6.773,3.879-10.161,5.532h-92.439c-8.076,0-14.646,6.57-14.646,14.646&#10;&#9;&#9;&#9;&#9;&#9;&#9;&#9;c0,11.936-9.711,21.646-21.647,21.646h-62.181C771.258,849.705,761.547,839.994,761.547,828.059z" style="fill: rgb(237, 164, 200);"/>
					</g>
				</g><g transform="matrix(1, 0, 0, 1, 0, -2.1316282072803006e-14)">
					<g>
						<path fill="#F4E3D7" d="M702.431,533.789h67.525c11.936,0,21.646,9.711,21.646,21.647v1.169&#10;&#9;&#9;&#9;&#9;&#9;&#9;&#9;c0,8.076,6.57,14.647,14.646,14.647h15.085c8.076,0,14.646-6.571,14.646-14.647v-56.779c0-1.933,1.567-3.5,3.5-3.5&#10;&#9;&#9;&#9;&#9;&#9;&#9;&#9;s3.5,1.567,3.5,3.5v56.779c0,11.937-9.711,21.647-21.646,21.647h-15.085c-11.936,0-21.646-9.711-21.646-21.647v-1.169&#10;&#9;&#9;&#9;&#9;&#9;&#9;&#9;c0-8.076-6.57-14.647-14.646-14.647h-67.523C702.433,538.459,702.432,536.125,702.431,533.789z"/>
					</g>
					<g>
						<path fill="#F4E3D7" d="M900.541,466.934H788.103c-1.933,0-3.5-1.567-3.5-3.5s1.567-3.5,3.5-3.5h112.438&#10;&#9;&#9;&#9;&#9;&#9;&#9;&#9;c8.076,0,14.646-6.571,14.646-14.647v-26.691c0-11.936,9.711-21.646,21.647-21.646h57.814c3.632,2.195,7.013,4.536,10.166,7&#10;&#9;&#9;&#9;&#9;&#9;&#9;&#9;h-67.98c-8.076,0-14.647,6.57-14.647,14.646v26.691C922.188,457.223,912.477,466.934,900.541,466.934z"/>
					</g>
					<g>
						<path fill="#F4E3D7" d="M702.409,340.052h128.558c11.936,0,21.646,9.71,21.646,21.646v65.342c0,1.933-1.567,3.5-3.5,3.5&#10;&#9;&#9;&#9;&#9;&#9;&#9;&#9;s-3.5-1.567-3.5-3.5v-65.342c0-8.076-6.57-14.646-14.646-14.646H702.409C702.409,344.695,702.409,342.363,702.409,340.052z"/>
					</g>
					<g>
						<path fill="#F4E3D7" d="M905.794,274.386c-8.076,0-14.646,6.57-14.646,14.646v51.308c0,1.933-1.567,3.5-3.5,3.5&#10;&#9;&#9;&#9;&#9;&#9;&#9;&#9;s-3.5-1.567-3.5-3.5v-51.308c0-11.936,9.711-21.646,21.646-21.646h31.577c3.334,2.225,6.457,4.562,9.376,7H905.794z"/>
					</g>
					<g>
						<path fill="#F4E3D7" d="M702.421,292.955h92.153c8.076,0,14.646-6.57,14.646-14.646v-61.061c0-1.933,1.567-3.5,3.5-3.5&#10;&#9;&#9;&#9;&#9;&#9;&#9;&#9;s3.5,1.567,3.5,3.5v61.061c0,11.936-9.711,21.646-21.646,21.646h-92.156C702.419,297.578,702.42,295.241,702.421,292.955z"/>
					</g>
					<g>
						<path fill="#F4E3D7" d="M770.035,151.694c-8.076,0-14.647,6.571-14.647,14.647v80.877c0,1.933-1.567,3.5-3.5,3.5&#10;&#9;&#9;&#9;&#9;&#9;&#9;&#9;s-3.5-1.567-3.5-3.5v-80.877c0-11.936,9.711-21.647,21.647-21.647h14.198c2.423,2.349,4.707,4.712,6.819,7H770.035z"/>
					</g>
					<g>
						<g>
							<path fill="#F4E3D7" d="M770.035,430.541h102.627c1.933,0,3.5-1.567,3.5-3.5s-1.567-3.5-3.5-3.5H770.035&#10;&#9;&#9;&#9;&#9;&#9;&#9;&#9;&#9;c-8.076,0-14.647-6.57-14.647-14.646v-25.739c0-1.933-1.567-3.5-3.5-3.5s-3.5,1.567-3.5,3.5v25.739&#10;&#9;&#9;&#9;&#9;&#9;&#9;&#9;&#9;C748.388,420.83,758.099,430.541,770.035,430.541z"/>
						</g>
					</g>
					<g>
						<g>
							<path fill="#F4E3D7" d="M757.062,503.326h115.601c1.933,0,3.5-1.566,3.5-3.5c0-1.933-1.567-3.5-3.5-3.5H757.062&#10;&#9;&#9;&#9;&#9;&#9;&#9;&#9;&#9;c-1.933,0-3.5,1.567-3.5,3.5C753.562,501.76,755.129,503.326,757.062,503.326z"/>
						</g>
					</g>
					<g>
						<path fill="#F4E3D7" d="M808.775,666.805c0-1.933,1.567-3.5,3.5-3.5h122.518c8.076,0,14.646-6.57,14.646-14.646V519.436&#10;&#9;&#9;&#9;&#9;&#9;&#9;&#9;c0-11.936,9.711-21.646,21.647-21.646h69.624c1.933,0,3.5,1.567,3.5,3.5c0,1.934-1.567,3.5-3.5,3.5h-69.624&#10;&#9;&#9;&#9;&#9;&#9;&#9;&#9;c-8.076,0-14.647,6.57-14.647,14.646v129.223c0,11.936-9.711,21.646-21.646,21.646H812.275&#10;&#9;&#9;&#9;&#9;&#9;&#9;&#9;C810.343,670.305,808.775,668.738,808.775,666.805z"/>
					</g>
					<g>
						<path fill="#F4E3D7" d="M702.472,666.023c-0.001-2.312-0.002-4.646-0.003-7h31.272c8.076,0,14.646-6.571,14.646-14.647&#10;&#9;&#9;&#9;&#9;&#9;&#9;&#9;v-10.803c0-11.936,9.711-21.646,21.647-21.646h137.578c1.933,0,3.5,1.566,3.5,3.5c0,1.933-1.567,3.5-3.5,3.5H770.035&#10;&#9;&#9;&#9;&#9;&#9;&#9;&#9;c-8.076,0-14.647,6.57-14.647,14.646v10.803c0,11.937-9.711,21.647-21.646,21.647H702.472z"/>
					</g>
					<g>
						<path fill="#F4E3D7" d="M908.303,738.255v-17.876c0-1.933,1.567-3.5,3.5-3.5s3.5,1.567,3.5,3.5v17.876&#10;&#9;&#9;&#9;&#9;&#9;&#9;&#9;c0,8.076,6.57,14.646,14.646,14.646h96.526c-0.927,2.417-1.934,4.748-3.013,7h-93.514&#10;&#9;&#9;&#9;&#9;&#9;&#9;&#9;C918.014,759.901,908.303,750.19,908.303,738.255z"/>
					</g>
					<g>
						<path fill="#F4E3D7" d="M886.896,685.901h112.489c8.076,0,14.646-6.57,14.646-14.646v-55.667&#10;&#9;&#9;&#9;&#9;&#9;&#9;&#9;c0-11.936,9.711-21.646,21.646-21.646h33.684c0.138,2.354,0.197,4.688,0.183,7h-33.866c-8.076,0-14.646,6.57-14.646,14.646&#10;&#9;&#9;&#9;&#9;&#9;&#9;&#9;v55.667c0,11.936-9.711,21.646-21.646,21.646H886.896c-8.076,0-14.646,6.571-14.646,14.647v78.187c0,1.933-1.567,3.5-3.5,3.5&#10;&#9;&#9;&#9;&#9;&#9;&#9;&#9;s-3.5-1.567-3.5-3.5v-78.187C865.249,695.612,874.96,685.901,886.896,685.901z"/>
					</g>
					<g>
						<path fill="#F4E3D7" d="M702.502,745.724h103.797c1.933,0,3.5,1.566,3.5,3.5c0,1.933-1.567,3.5-3.5,3.5H702.505&#10;&#9;&#9;&#9;&#9;&#9;&#9;&#9;C702.504,750.488,702.503,748.155,702.502,745.724z"/>
					</g>
					<g>
						<path fill="#F4E3D7" d="M761.547,822.059v-43.935c0-1.934,1.567-3.5,3.5-3.5s3.5,1.566,3.5,3.5v43.935&#10;&#9;&#9;&#9;&#9;&#9;&#9;&#9;c0,8.076,6.57,14.646,14.646,14.646h62.181c8.076,0,14.647-6.57,14.647-14.646c0-11.937,9.711-21.646,21.646-21.646h99.76&#10;&#9;&#9;&#9;&#9;&#9;&#9;&#9;c1.173,0,2.205,0.582,2.841,1.468c-3.371,2.035-6.773,3.879-10.161,5.532h-92.439c-8.076,0-14.646,6.57-14.646,14.646&#10;&#9;&#9;&#9;&#9;&#9;&#9;&#9;c0,11.936-9.711,21.646-21.647,21.646h-62.181C771.258,843.705,761.547,833.994,761.547,822.059z"/>
					</g>
				</g><path d="M 953.0819702148438 170.73399353027344 L 959.510009765625 178.7310028076172 L 969.1019897460938 182.37399291992188 L 963.4819946289062 190.95799255371094 L 962.9819946289062 201.20700073242188 L 953.0819702148438 198.51499938964844 L 943.1810302734375 201.20700073242188 L 942.6810302734375 190.95799255371094 L 937.06201171875 182.37399291992188 L 946.6530151367188 178.7310028076172 Z" fill="#FB9904" transform="matrix(1, 0, 0, 1, 0, -1.4210854715202004e-14)" style="fill: rgb(196, 127, 205);"/><path fill="#FD6804" d="M851.674,110.696c-9.886-1.081-17.777-9.119-18.664-19.023c-0.491-5.498,1.156-10.582,4.17-14.578&#10;&#9;&#9;&#9;c-8,3.254-13.556,11.271-13.116,20.539c0.518,10.9,9.5,19.71,20.407,20.034c7.14,0.212,13.487-3.145,17.451-8.4&#10;&#9;&#9;&#9;C858.807,110.534,855.328,111.095,851.674,110.696z" transform="matrix(1, 0, 0, 1, 0, -1.4210854715202004e-14)" style="fill: rgb(105, 65, 161);"/><path fill="#EC6B6F" d="M1058.621,317.028c-9.5-1.038-17.085-8.764-17.938-18.283c-0.473-5.284,1.111-10.17,4.008-14.011&#10;&#9;&#9;&#9;c-7.688,3.127-13.028,10.833-12.605,19.739c0.497,10.476,9.13,18.944,19.613,19.255c6.86,0.204,12.962-3.022,16.771-8.074&#10;&#9;&#9;&#9;C1065.477,316.873,1062.134,317.412,1058.621,317.028z" transform="matrix(1, 0, 0, 1, 0, -1.4210854715202004e-14)" style="fill: rgb(78, 47, 148);"/><path fill="#F2AFAF" d="M221.77,789.2L221.77,789.2c-8.941-0.437-15.835-8.038-15.399-16.979l-8.83-114.613l48.292-4.376&#10;&#9;&#9;&#9;l-7.084,120.569C238.312,782.742,230.71,789.636,221.77,789.2z" transform="matrix(1, 0, 0, 1, 0, -1.4210854715202004e-14)"/><path fill="#F2AFAF" d="M221.501,758.557L221.501,758.557c-8.944,0.354-15.908,7.893-15.554,16.837l5.708,142.395h13.3&#10;&#9;&#9;&#9;l13.383-143.678C237.983,765.166,230.446,758.202,221.501,758.557z" transform="matrix(1, 0, 0, 1, 0, -1.4210854715202004e-14)"/><path fill="#011295" d="M212.1,379.793c0,0,51.535,0,32.17,38.533c-17.458,34.74-10.428,19.896-1.595,62.894&#10;&#9;&#9;&#9;c8.833,42.999-26.428,69.922-71.747,54.625c-31.729-10.71-37.966-55.684-18.668-71.463&#10;&#9;&#9;&#9;C183.678,438.69,154.521,379.793,212.1,379.793z" transform="matrix(1, 0, 0, 1, 0, -1.4210854715202004e-14)" style="fill: rgb(75, 44, 112);"/><path fill="#FFB2B2" d="M111.03,561.016L111.03,561.016c5.714,4.475,13.974,3.47,18.448-2.244l47.02-60.048&#10;&#9;&#9;&#9;c2.611-3.334,2.024-8.154-1.31-10.765l-8.618-6.748c-3.334-2.611-8.154-2.025-10.765,1.31l-47.02,60.047&#10;&#9;&#9;&#9;C104.311,548.282,105.316,556.541,111.03,561.016z" transform="matrix(1, 0, 0, 1, 0, -1.4210854715202004e-14)"/><path fill="#FFFFFF" d="M135.582,493.022l27.384,22.966l25.157-29.998c5.619-6.7,4.742-16.687-1.958-22.306l0,0&#10;&#9;&#9;&#9;c-6.7-5.619-16.687-4.743-22.306,1.958L135.582,493.022z" transform="matrix(1, 0, 0, 1, 0, -1.4210854715202004e-14)"/><path d="M 141.31900024414062 487.4679870605469 L 167.5570068359375 510.5140075683594 L 169.32400512695312 508.406005859375 L 143.30099487304688 485.5480041503906 Z" fill="#FD9B04" transform="matrix(1, 0, 0, 1, 0, -1.4210854715202004e-14)"/><path fill="#FFB2B2" d="M337.564,516.152L337.564,516.152c-2.988,6.613-10.773,9.552-17.386,6.563l-69.5-31.406&#10;&#9;&#9;&#9;c-3.859-1.744-5.574-6.286-3.83-10.146l4.507-9.975c1.744-3.859,6.287-5.574,10.146-3.83l69.499,31.406&#10;&#9;&#9;&#9;C337.615,501.755,340.553,509.539,337.564,516.152z" transform="matrix(1, 0, 0, 1, 0, -1.4210854715202004e-14)"/><path fill="#FFFFFF" d="M286.902,471.084l-13.509,32.78l-35.969-14.822c-8.084-3.332-11.938-12.587-8.606-20.672l0,0&#10;&#9;&#9;&#9;c3.332-8.085,12.587-11.938,20.671-8.606L286.902,471.084z" transform="matrix(1, 0, 0, 1, 0, -1.4210854715202004e-14)"/><path fill="#FFFFFF" d="M176.553,461.587c0,0,33.936-13.505,77.472,0.101c0,0-2.546,76.007-15.183,104.938l-54-1.647&#10;&#9;&#9;&#9;C184.842,564.978,163.629,481.559,176.553,461.587z" transform="matrix(1, 0, 0, 1, 0, -1.4210854715202004e-14)"/><path fill="#FFB2B2" d="M200.473,789.182L200.473,789.182c-8.952,0-16.208-7.257-16.208-16.208V658.927h51.625l-19.209,114.047&#10;&#9;&#9;&#9;C216.681,781.925,209.425,789.182,200.473,789.182z" transform="matrix(1, 0, 0, 1, 0, -1.4210854715202004e-14)"/><path fill="#FFB2B2" d="M200.473,760.37L200.473,760.37c-8.952,0-16.208,7.257-16.208,16.208l5,141.654h15.41l12.006-141.654&#10;&#9;&#9;&#9;C216.681,767.627,209.425,760.37,200.473,760.37z" transform="matrix(1, 0, 0, 1, 0, -1.4210854715202004e-14)"/><path fill="#00118F" d="M189.169,918.232c0,0-10.524,0-20.077,9.205h35.591v-9.205H189.169z" transform="matrix(1, 0, 0, 1, 0, -1.4210854715202004e-14)" style="fill: rgb(62, 37, 94);"/><path fill="#FFFFFF" d="M184.842,564.978c0,0-36.511,35.34-42.782,159.97c0,0,98.271,12.278,136.771-3.722&#10;&#9;&#9;&#9;c0,0,0-111.908-39.989-154.601L184.842,564.978z" transform="matrix(1, 0, 0, 1, 0, -1.4210854715202004e-14)"/><path fill="none" stroke="#FD9B04" stroke-miterlimit="10" d="M216.592,488c0,0,19.894,15.272,5.095,46.461&#10;&#9;&#9;&#9;c0,0-4.667,23.869-5.006,30.517s14.963,119.293,1.062,159.97" transform="matrix(1, 0, 0, 1, 0, -1.4210854715202004e-14)"/><path fill="#00118F" d="M226.731,917.232c0,0,10.524,0,20.077,9.205h-35.591v-9.205H226.731z" transform="matrix(1, 0, 0, 1, 0, -1.4210854715202004e-14)" style="fill: rgb(59, 35, 89);"/><path fill="#E0A4A4" d="M191.495,457.667c5.833,12.834,21.708,42.525,21.708,42.525c2.489-1.106,10.977-36.836,14.487-43.9&#10;&#9;&#9;&#9;C212.99,454.804,200.468,456.022,191.495,457.667z" transform="matrix(1, 0, 0, 1, 0, -1.4210854715202004e-14)"/><path fill="#FD9B04" d="M191.495,457.667c0,0,17.311,34.229,21.708,42.525c0,0-15.581-15.691-20.61-27.359&#10;&#9;&#9;&#9;c0,0,0.5-3.083,2.375-4.458l-5.625,0.375C189.342,468.75,179.671,459.243,191.495,457.667z" transform="matrix(1, 0, 0, 1, 0, -1.4210854715202004e-14)"/><path d="M 200.641998 434.230011 H 223.580997 V 461.844011 H 200.641998 V 434.230011 Z" fill="#E0A4A4" transform="matrix(1, 0, 0, 1, 0, -1.4210854715202004e-14)"/><path fill="#FFB2B2" d="M190.859,418.948c-0.185,7.121,1.723,14.679,6.323,20.252c4.678,5.668,11.742,7.289,18.373,9.737&#10;&#9;&#9;&#9;c0.901,0.332,1.884,0.668,2.799,0.379c0.955-0.301,1.575-1.198,2.121-2.037c1.947-2.988,3.893-5.976,5.84-8.964&#10;&#9;&#9;&#9;c0.989-1.519,1.986-3.052,2.624-4.748c1.078-2.861,1.071-6,1.051-9.057c-0.081-12.363-1.902-31.199-18.565-31.631&#10;&#9;&#9;&#9;C200.448,392.596,191.241,404.266,190.859,418.948z" transform="matrix(1, 0, 0, 1, 0, -1.4210854715202004e-14)"/><path fill="#FFB2B2" d="M322.282,523.322L322.282,523.322c6.833,2.447,15.084-3.143,18.429-12.484l19.608-72.843l-11.663-4.177&#10;&#9;&#9;&#9;l-32.688,68.158C312.623,511.318,315.45,520.875,322.282,523.322z" transform="matrix(1, 0, 0, 1, 0, -1.4210854715202004e-14)"/><path fill="#FFB2B2" d="M356.743,442.978c2.093,0.329,4.156-0.403,5.752-2.833c1.055-1.605,1.337-3.583,1.542-5.492&#10;&#9;&#9;&#9;c0.287-2.669,0.446-5.502-0.752-7.905c-0.509-1.02-1.254-2.231-0.629-3.184c0.328-0.501,0.936-0.722,1.48-0.972&#10;&#9;&#9;&#9;c4.057-1.868,5.958-7.358,3.924-11.334c-0.656-1.283-1.797-2.465-3.234-2.579c-0.888-0.071-1.75,0.274-2.575,0.613&#10;&#9;&#9;&#9;c-4.151,1.705-8.302,3.41-12.453,5.115c-1.017,0.417-2.105,0.896-2.653,1.848c-0.405,0.703-0.445,1.551-0.466,2.362&#10;&#9;&#9;&#9;c-0.119,4.611,0.046,9.229,0.495,13.82C347.585,436.626,352.232,442.268,356.743,442.978z" transform="matrix(1, 0, 0, 1, 0, -1.4210854715202004e-14)"/><path fill="#FFB2B2" d="M76.726,485.196c-1.013,0.97-4.076,1.536-5.385,1.193c-1.812,0.228-3.889,0.376-5.222-0.873&#10;&#9;&#9;&#9;c-3.935-3.687-8.385-7.957-11.589-12.378c-1.444-1.993-2.695-4.272-2.73-6.733c-0.033-2.276,0.981-4.44,2.198-6.365&#10;&#9;&#9;&#9;c0.837-1.324,1.809-2.608,3.122-3.463c1.312-0.854,3.025-1.222,4.474-0.626c0.999,0.41,1.77,1.219,2.51,2.005&#10;&#9;&#9;&#9;c1.329,1.412,2.658,2.825,3.986,4.237c0.771,0.819,1.57,1.659,2.596,2.12c1.026,0.461,2.349,0.452,3.164-0.323&#10;&#9;&#9;&#9;c0.82-0.78,0.9-2.051,1.461-3.034c0.562-0.983,2.296-1.452,2.661-0.38c0.144,0.424-0.024,0.883-0.174,1.306&#10;&#9;&#9;&#9;c-1.114,3.15-1.16,6.611-0.246,9.816c0.983,3.445,0.504,5.783-0.034,9.427c-0.151,1.021-0.058,2.863-0.557,3.773&#10;&#9;&#9;&#9;C76.906,485.001,76.826,485.101,76.726,485.196z" transform="matrix(1, 0, 0, 1, 0, -1.4210854715202004e-14)"/><path fill="#FFB2B2" d="M122.842,563.754L122.842,563.754c-6.177,3.811-14.273,1.893-18.083-4.284L64.635,482.2l10.543-6.504&#10;&#9;&#9;&#9;l51.949,69.975C130.938,551.848,129.019,559.944,122.842,563.754z" transform="matrix(1, 0, 0, 1, 0, -1.4210854715202004e-14)"/><path fill="#011295" d="M201.699,395.961c0,0,11.438,22.866,28.296,21.762c0,0,0.851-24.84-7.43-26.22&#10;&#9;&#9;&#9;C214.286,390.123,202.361,390.759,201.699,395.961z" transform="matrix(1, 0, 0, 1, 0, -1.4210854715202004e-14)" style="fill: rgb(75, 44, 112);"/><path fill="#011295" d="M207.856,395.367c0,0-18.613,21.252-11.474,33.673c7.139,12.42,5.499,27.635,5.499,27.635&#10;&#9;&#9;&#9;s-34.793,9.625-16.973-33.983C191.561,406.413,189.007,388.191,207.856,395.367z" transform="matrix(1, 0, 0, 1, 0, -1.4210854715202004e-14)" style="fill: rgb(75, 44, 112);"/><path fill="#FD9B04" d="M213.202,500.192c0,0,16.89-27.817,19.14-32.317l-4.653-4.75c0,0,8.839-1.07,12.689-4.929&#10;&#9;&#9;&#9;c0,0-6.842-4.238-12.689-1.904C227.689,456.292,223.206,466.677,213.202,500.192z" transform="matrix(1, 0, 0, 1, 0, -1.4210854715202004e-14)"/><path d="M 268.6809997558594 501.9219970703125 L 281.37200927734375 469.4110107421875 L 278.7309875488281 468.61199951171875 L 266.1369934082031 500.8739929199219 Z" fill="#FD9B04" transform="matrix(1, 0, 0, 1, 0, -1.4210854715202004e-14)"/><path fill="none" stroke="#000000" stroke-miterlimit="10" d="M217.831,421.15c0,0,4.918,9.917,8.959,9.667&#10;&#9;&#9;&#9;c0,0-4.209,3.752-7.459,3.001" transform="matrix(1, 0, 0, 1, 0, -1.4210854715202004e-14)"/><path fill="#561B1B" d="M214.566,436.493c0,0,3.155,2.157,6.31,0.892c0,0-1.546,4.78-3.093,4.921&#10;&#9;&#9;&#9;C216.236,442.447,214.566,436.493,214.566,436.493z" transform="matrix(1, 0, 0, 1, 0, -1.4210854715202004e-14)"/><path fill="#0B000E" d="M1136.002,723.212L1136.002,723.212c-8.66-3.028-13.226-12.504-10.197-21.164l35.8-143.251l48.734,9.739&#10;&#9;&#9;&#9;l-53.173,144.478C1154.138,721.674,1144.662,726.24,1136.002,723.212z" transform="matrix(1, 0, 0, 1, 0, -1.4210854715202004e-14)"/><path fill="#0B000E" d="M1143.928,692.697L1143.928,692.697c9.053,1.491,15.182,10.038,13.69,19.091l-29.986,167.136l-13.526,0.04&#10;&#9;&#9;&#9;l10.731-172.576C1126.328,697.336,1134.875,691.206,1143.928,692.697z" transform="matrix(1, 0, 0, 1, 0, -1.4210854715202004e-14)"/><path fill="#08062E" d="M1225.056,721.288L1225.056,721.288c-8.983,1.86-17.774-3.915-19.635-12.899l-28.115-144.313&#10;&#9;&#9;&#9;l51.812-10.727l8.837,148.306C1239.814,710.638,1234.039,719.429,1225.056,721.288z" transform="matrix(1, 0, 0, 1, 0, -1.4210854715202004e-14)"/><path fill="#08062E" d="M1220.384,691.856L1220.384,691.856c-9.045,1.536-15.132,10.114-13.596,19.158l39.817,169.271h16.236&#10;&#9;&#9;&#9;l-23.3-174.833C1238.006,696.407,1229.429,690.32,1220.384,691.856z" transform="matrix(1, 0, 0, 1, 0, -1.4210854715202004e-14)"/><path fill="#40040E" d="M1197.401,355.792c0,0-46.105,3.238-35.552,25.485c10.555,22.248,3.58,40.35,3.58,40.35&#10;&#9;&#9;&#9;s31.269,8.422,37.099,4.462C1208.359,422.13,1238.297,355.831,1197.401,355.792z" transform="matrix(1, 0, 0, 1, 0, -1.4210854715202004e-14)"/><path fill="#140C6F" d="M1135.716,548.179l3.966,0.758c6.211,1.187,12.208-2.886,13.395-9.096l19.679-102.949&#10;&#9;&#9;&#9;c0.692-3.624-1.684-7.124-5.308-7.816l0,0c-10.988-2.1-21.598,5.104-23.698,16.092l-17.13,89.617&#10;&#9;&#9;&#9;C1125.433,540.994,1129.505,546.991,1135.716,548.179z" transform="matrix(1, 0, 0, 1, 0, -1.4210854715202004e-14)" style="fill: rgb(42, 137, 114);"/><path fill="#FCADB2" d="M1069.599,544.463c-0.027-1.129-1.452-3.191-2.395-3.74c-0.903-1.16-2.004-2.425-3.475-2.47&#10;&#9;&#9;&#9;c-4.339-0.133-9.303-0.226-13.644,0.477c-1.956,0.315-3.965,0.905-5.383,2.289c-1.312,1.28-1.964,3.09-2.363,4.879&#10;&#9;&#9;&#9;c-0.274,1.231-0.449,2.517-0.186,3.75c0.263,1.233,1.03,2.416,2.195,2.899c0.803,0.333,1.702,0.311,2.571,0.282&#10;&#9;&#9;&#9;c1.561-0.051,3.121-0.102,4.682-0.152c0.905-0.029,1.838-0.055,2.686,0.266c0.847,0.32,1.596,1.077,1.621,1.982&#10;&#9;&#9;&#9;c0.024,0.91-0.652,1.682-0.891,2.561c-0.238,0.88,0.485,2.133,1.302,1.729c0.324-0.16,0.488-0.518,0.644-0.844&#10;&#9;&#9;&#9;c1.154-2.431,3.095-4.431,5.437-5.739c2.52-1.406,3.574-3.013,5.337-5.396c0.494-0.668,1.595-1.666,1.826-2.469&#10;&#9;&#9;&#9;C1069.59,544.676,1069.602,544.574,1069.599,544.463z" transform="matrix(1, 0, 0, 1, 0, -1.4210854715202004e-14)"/><path fill="#FCADB2" d="M1151.079,534.392L1151.079,534.392c0.88,7.386-4.394,14.087-11.779,14.968l-74.795,1.587l-1.503-12.606&#10;&#9;&#9;&#9;l73.109-15.728C1143.497,521.732,1150.198,527.006,1151.079,534.392z" transform="matrix(1, 0, 0, 1, 0, -1.4210854715202004e-14)"/><path fill="#140C6F" d="M1151.079,534.392L1151.079,534.392c0.88,7.386-4.394,14.087-11.779,14.968l-64.105,5.385l-2.898-19.146&#10;&#9;&#9;&#9;l63.815-12.986C1143.497,521.732,1150.198,527.006,1151.079,534.392z" transform="matrix(1, 0, 0, 1, 0, -1.4210854715202004e-14)" style="fill: rgb(42, 137, 114);"/><path fill="#1F1C8F" d="M1165.327,423.304c11.797-2.711,32.853-5.52,58.061,0.097c6.496,1.448,10.974,7.417,10.604,14.062&#10;&#9;&#9;&#9;c-1.255,22.588,18.322,110.261,4.311,139.508c0,0-19.664,4.646-42.026,4.646c-21.2,0-43.814-7.261-43.814-7.261&#10;&#9;&#9;&#9;s-4.748-104.63-1.075-135.546C1152.29,431.21,1157.867,425.019,1165.327,423.304z" transform="matrix(1, 0, 0, 1, 0, -1.4210854715202004e-14)" style="fill: rgb(54, 178, 146);"/><path fill="#8E8E8E" d="M1063.528,881.005L1063.528,881.005c-4.061,0.491-7.751-2.401-8.242-6.462l-35.271-291.209l14.703-1.78&#10;&#9;&#9;&#9;&#9;l35.271,291.209C1070.481,876.822,1067.589,880.513,1063.528,881.005z" transform="matrix(1, 0, 0, 1, 0, -2.1316282072803006e-14)"/><path fill="#8E8E8E" d="M1273.107,916.461L1273.107,916.461c-4.06,0.491-7.75-2.401-8.242-6.462l-35.27-291.209l14.703-1.78&#10;&#9;&#9;&#9;&#9;l35.271,291.209C1280.061,912.278,1277.168,915.969,1273.107,916.461z" transform="matrix(1, 0, 0, 1, 0, -2.1316282072803006e-14)"/><path fill="#707070" d="M937.213,889.536L937.213,889.536c-4.059-0.506-6.938-4.206-6.433-8.265l36.268-291.086l14.697,1.831&#10;&#9;&#9;&#9;&#9;l-36.268,291.087C944.972,887.161,941.271,890.042,937.213,889.536z" transform="matrix(1, 0, 0, 1, 0, -2.1316282072803006e-14)"/><path fill="#707070" d="M1146.95,922.643L1146.95,922.643c-4.059-0.506-6.938-4.205-6.434-8.264l36.269-291.087l14.697,1.831&#10;&#9;&#9;&#9;&#9;l-36.269,291.087C1154.709,920.269,1151.009,923.148,1146.95,922.643z" transform="matrix(1, 0, 0, 1, 0, -2.1316282072803006e-14)"/><g enable-background="new    " transform="matrix(1, 0, 0, 1, 0, -2.1316282072803006e-14)">
					<path fill="#1C1C1C" d="M962.051,597.554c-0.04-0.007,0.015-3.187,0.014-3.392c-0.004-2.737-0.009,10.208-0.014,7.472&#10;&#9;&#9;&#9;&#9;&#9;&#9;c-0.01-5.646-0.019-11.293-0.028-16.939c-0.001-0.457,0.197-1.478-0.003-1.895c-0.289-0.601-2.862-0.239-2.862-1.322&#10;&#9;&#9;&#9;&#9;&#9;&#9;c0.017,9.515,0.032,3.348,0.048,12.862c0.001,0.587-0.116,1.318,0.004,1.895C959.427,597.279,961.156,597.402,962.051,597.554z&#10;&#9;&#9;&#9;&#9;&#9;&#9;"/>
					<path fill="#1C1C1C" d="M1252.358,625.214c-0.016-8.924-0.03-2.167-0.046-11.091c-0.002-1.271-0.004-2.542-0.006-3.812&#10;&#9;&#9;&#9;&#9;&#9;&#9;c0.003,1.094-2.449,0.682-2.747,1.232c-0.15,0.276,0.001,1.053,0.002,1.363c0.004,2.291,0.008,4.58,0.012,6.87&#10;&#9;&#9;&#9;&#9;&#9;&#9;c0.01,5.964,0.021-3.756,0.03,2.207c0.002,1.466,0.005,2.932,0.007,4.397C1250.271,626.264,1252.166,626.085,1252.358,625.214z&#10;&#9;&#9;&#9;&#9;&#9;&#9;"/>
					<g>
						<path d="M 1249.5589599609375 611.47802734375 L 1249.6099853515625 626.3809814453125 L 1199.7159423828125 635.2520141601562 L 1199.6639404296875 620.3489990234375 Z" fill="#2D2D2D"/>
					</g>
					<g>
						<path d="M 1186.134033203125 620.3920288085938 L 1186.18603515625 635.2949829101562 L 962.0700073242188 597.5570068359375 L 962.0189819335938 582.6530151367188 Z" fill="#2D2D2D"/>
					</g>
					<path fill="#1C1C1C" d="M1199.664,620.349c-4.447,0.79-9.078,0.792-13.53,0.043c0.009,5.44,0.019-4.801,0.027,0.64&#10;&#9;&#9;&#9;&#9;&#9;&#9;c0.005,2.686,0.009,5.372,0.014,8.058c0.003,1.378,0.005,2.755,0.007,4.133c0.001,0.465-0.274,1.809,0.104,2.139&#10;&#9;&#9;&#9;&#9;&#9;&#9;c0.37,0.323,1.569,0.165,2.04,0.206c1.394,0.12,2.79,0.185,4.188,0.193c2.041,0.014,4.104-0.078,6.137-0.271&#10;&#9;&#9;&#9;&#9;&#9;&#9;c0.864-0.082,1.08-0.064,1.104-0.974c0.033-1.262-0.044-2.533-0.046-3.797c-0.004-2.641-0.009-5.28-0.013-7.921&#10;&#9;&#9;&#9;&#9;&#9;&#9;C1199.685,616.754,1199.675,626.393,1199.664,620.349z"/>
					<g>
						<path fill="#3A3A3A" d="M1249.445,609.135c3.769,0.635,3.822,1.684,0.113,2.343l-49.895,8.871&#10;&#9;&#9;&#9;&#9;&#9;&#9;&#9;c-3.702,0.658-9.762,0.677-13.53,0.043l-224.115-37.738c-3.768-0.635-3.821-1.683-0.12-2.341l49.896-8.872&#10;&#9;&#9;&#9;&#9;&#9;&#9;&#9;c3.708-0.659,9.769-0.678,13.537-0.044L1249.445,609.135z"/>
					</g>
				</g><g enable-background="new    " transform="matrix(1, 0, 0, 1, 0, -2.1316282072803006e-14)">
					<path fill="#1C1C1C" d="M989.622,584.594c-0.034-0.006,0.013-2.683,0.012-2.855c-0.004-2.304-0.008-4.606-0.012-6.91&#10;&#9;&#9;&#9;&#9;&#9;&#9;c-0.008-4.752-0.016-9.505-0.023-14.257c-0.001-0.385,0.166-1.243-0.003-1.594c-0.243-0.507-2.408-0.202-2.408-1.114&#10;&#9;&#9;&#9;&#9;&#9;&#9;c0.013,8.009,0.026,16.017,0.04,24.025c0.001,0.493-0.099,1.109,0.003,1.594C987.414,584.362,988.869,584.466,989.622,584.594z&#10;&#9;&#9;&#9;&#9;&#9;&#9;"/>
					<path fill="#1C1C1C" d="M1233.959,607.874c-0.013-7.512-0.025-15.023-0.038-22.534c-0.002-1.069-0.004-2.14-0.006-3.209&#10;&#9;&#9;&#9;&#9;&#9;&#9;c0.003,0.921-2.061,0.574-2.312,1.037c-0.126,0.233,0.001,0.887,0.002,1.148c0.003,1.927,0.006,3.854,0.01,5.782&#10;&#9;&#9;&#9;&#9;&#9;&#9;c0.008,5.019,0.017,10.037,0.025,15.056c0.002,1.234,0.004,2.468,0.006,3.701&#10;&#9;&#9;&#9;&#9;&#9;&#9;C1232.202,608.757,1233.797,608.606,1233.959,607.874z"/>
					<g>
						<path d="M 1231.60400390625 583.1129760742188 L 1231.64599609375 608.85498046875 L 1189.6519775390625 616.322021484375 L 1189.6090087890625 590.5789794921875 Z" fill="#2D2D2D"/>
					</g>
					<g>
						<path d="M 1178.2220458984375 590.614990234375 L 1178.2650146484375 616.3579711914062 L 989.6389770507812 584.5960083007812 L 989.5960083007812 558.85400390625 Z" fill="#2D2D2D"/>
					</g>
					<path fill="#1C1C1C" d="M1189.609,590.579c-3.743,0.666-7.641,0.667-11.389,0.036c0.008,4.579,0.016,9.158,0.023,13.738&#10;&#9;&#9;&#9;&#9;&#9;&#9;c0.004,2.26,0.008,4.521,0.012,6.781c0.002,1.159,0.004,2.318,0.006,3.479c0.001,0.391-0.23,1.522,0.087,1.8&#10;&#9;&#9;&#9;&#9;&#9;&#9;c0.312,0.272,1.321,0.139,1.717,0.173c1.173,0.102,2.349,0.155,3.525,0.163c1.718,0.012,3.454-0.065,5.165-0.228&#10;&#9;&#9;&#9;&#9;&#9;&#9;c0.728-0.068,0.909-0.054,0.929-0.819c0.028-1.062-0.036-2.133-0.038-3.196c-0.004-2.222-0.008-4.443-0.012-6.666&#10;&#9;&#9;&#9;&#9;&#9;&#9;C1189.627,600.753,1189.618,595.666,1189.609,590.579z"/>
					<g>
						<path fill="#3A3A3A" d="M1231.508,581.142c3.172,0.534,3.217,1.417,0.096,1.972l-41.994,7.466&#10;&#9;&#9;&#9;&#9;&#9;&#9;&#9;c-3.116,0.555-8.217,0.57-11.388,0.036l-188.626-31.762c-3.172-0.534-3.217-1.417-0.102-1.971l41.994-7.466&#10;&#9;&#9;&#9;&#9;&#9;&#9;&#9;c3.121-0.556,8.223-0.571,11.394-0.037L1231.508,581.142z"/>
					</g>
				</g><path d="M 1052.7869873046875 549.8049926757812 L 1024.6080322265625 554.8150024414062 L 1019.7639770507812 554 L 1047.9429931640625 548.989013671875 Z" fill="#D3D3D3" transform="matrix(1, 0, 0, 1, 0, -2.1316282072803006e-14)"/><path d="M 1059.10400390625 550.89501953125 L 1030.925048828125 555.9039916992188 L 1026.0799560546875 555.0889892578125 L 1054.260009765625 550.0780029296875 Z" fill="#D3D3D3" transform="matrix(1, 0, 0, 1, 0, -2.1316282072803006e-14)"/><path d="M 1065.4200439453125 551.9829711914062 L 1037.240966796875 556.9929809570312 L 1032.39599609375 556.177978515625 L 1060.5760498046875 551.1680297851562 Z" fill="#2D2626" transform="matrix(1, 0, 0, 1, 0, -2.1316282072803006e-14)"/><path d="M 1071.7359619140625 553.072021484375 L 1043.5579833984375 558.0819702148438 L 1038.7130126953125 557.2670288085938 L 1066.8929443359375 552.2570190429688 Z" fill="#D3D3D3" transform="matrix(1, 0, 0, 1, 0, -2.1316282072803006e-14)"/><path d="M 1078.052978515625 554.1610107421875 L 1049.8740234375 559.1719970703125 L 1045.030029296875 558.35498046875 L 1073.208984375 553.3460083007812 Z" fill="#D3D3D3" transform="matrix(1, 0, 0, 1, 0, -2.1316282072803006e-14)"/><path d="M 1084.3690185546875 555.25 L 1056.18994140625 560.260986328125 L 1051.3470458984375 559.4439697265625 L 1079.5250244140625 554.4349975585938 Z" fill="#D3D3D3" transform="matrix(1, 0, 0, 1, 0, -2.1316282072803006e-14)"/><path d="M 1090.68603515625 556.3389892578125 L 1062.5069580078125 561.3499755859375 L 1057.6629638671875 560.5339965820312 L 1085.842041015625 555.5230102539062 Z" fill="#2D2626" transform="matrix(1, 0, 0, 1, 0, -2.1316282072803006e-14)"/><path d="M 1097.001953125 557.4290161132812 L 1068.822998046875 562.43798828125 L 1063.97900390625 561.6229858398438 L 1092.157958984375 556.6119995117188 Z" fill="#D3D3D3" transform="matrix(1, 0, 0, 1, 0, -2.1316282072803006e-14)"/><path d="M 1103.3179931640625 558.5180053710938 L 1075.1400146484375 563.5269775390625 L 1070.2960205078125 562.7119750976562 L 1098.4749755859375 557.7020263671875 Z" fill="#D3D3D3" transform="matrix(1, 0, 0, 1, 0, -2.1316282072803006e-14)"/><path d="M 1109.635009765625 559.6060180664062 L 1081.4560546875 564.6160278320312 L 1076.612060546875 563.801025390625 L 1104.791015625 558.791015625 Z" fill="#2D2626" transform="matrix(1, 0, 0, 1, 0, -2.1316282072803006e-14)"/><path d="M 1115.9510498046875 560.6950073242188 L 1087.77197265625 565.7050170898438 L 1082.928955078125 564.8900146484375 L 1111.1070556640625 559.8800048828125 Z" fill="#D3D3D3" transform="matrix(1, 0, 0, 1, 0, -2.1316282072803006e-14)"/><path d="M 1122.2679443359375 561.7839965820312 L 1094.0889892578125 566.7949829101562 L 1089.2449951171875 565.97900390625 L 1117.4239501953125 560.968994140625 Z" fill="#D3D3D3" transform="matrix(1, 0, 0, 1, 0, -2.1316282072803006e-14)"/><path d="M 1128.583984375 562.8740234375 L 1100.405029296875 567.8839721679688 L 1095.56201171875 567.0679931640625 L 1123.739990234375 562.0579833984375 Z" fill="#2D2626" transform="matrix(1, 0, 0, 1, 0, -2.1316282072803006e-14)"/><path d="M 1134.9000244140625 563.9630126953125 L 1106.7220458984375 568.9730224609375 L 1101.8780517578125 568.156982421875 L 1130.0570068359375 563.14697265625 Z" fill="#D3D3D3" transform="matrix(1, 0, 0, 1, 0, -2.1316282072803006e-14)"/><path d="M 1141.217041015625 565.052001953125 L 1113.0379638671875 570.06201171875 L 1108.1939697265625 569.2459716796875 L 1136.373046875 564.2360229492188 Z" fill="#D3D3D3" transform="matrix(1, 0, 0, 1, 0, -2.1316282072803006e-14)"/><path d="M 1147.532958984375 566.1409912109375 L 1119.35400390625 571.1500244140625 L 1114.510986328125 570.3350219726562 L 1142.68896484375 565.3250122070312 Z" fill="#2D2626" transform="matrix(1, 0, 0, 1, 0, -2.1316282072803006e-14)"/><path d="M 1153.8499755859375 567.22900390625 L 1125.6710205078125 572.239990234375 L 1120.8270263671875 571.4240112304688 L 1149.0059814453125 566.4140014648438 Z" fill="#D3D3D3" transform="matrix(1, 0, 0, 1, 0, -2.1316282072803006e-14)"/><path d="M 1160.166015625 568.3179931640625 L 1131.987060546875 573.3289794921875 L 1127.14404296875 572.5139770507812 L 1155.322021484375 567.5029907226562 Z" fill="#D3D3D3" transform="matrix(1, 0, 0, 1, 0, -2.1316282072803006e-14)"/><path d="M 1166.4820556640625 569.4080200195312 L 1138.303955078125 574.4180297851562 L 1133.4599609375 573.60302734375 L 1161.6390380859375 568.5919799804688 Z" fill="#2D2626" transform="matrix(1, 0, 0, 1, 0, -2.1316282072803006e-14)"/><path d="M 1172.7989501953125 570.4970092773438 L 1144.6199951171875 575.5070190429688 L 1139.7760009765625 574.6909790039062 L 1167.9549560546875 569.6820068359375 Z" fill="#D3D3D3" transform="matrix(1, 0, 0, 1, 0, -2.1316282072803006e-14)"/><path d="M 1179.115966796875 571.5859985351562 L 1150.93701171875 576.5960083007812 L 1146.093017578125 575.780029296875 L 1174.27099609375 570.77099609375 Z" fill="#D3D3D3" transform="matrix(1, 0, 0, 1, 0, -2.1316282072803006e-14)"/><path d="M 1185.4329833984375 572.6749877929688 L 1157.2530517578125 577.6859741210938 L 1152.4090576171875 576.8690185546875 L 1180.5880126953125 571.8590087890625 Z" fill="#2D2626" transform="matrix(1, 0, 0, 1, 0, -2.1316282072803006e-14)"/><path d="M 1191.7490234375 573.7639770507812 L 1163.5689697265625 578.7739868164062 L 1158.7259521484375 577.9580078125 L 1186.904052734375 572.947998046875 Z" fill="#D3D3D3" transform="matrix(1, 0, 0, 1, 0, -2.1316282072803006e-14)"/><path d="M 1198.06494140625 574.85400390625 L 1169.885986328125 579.8629760742188 L 1165.0419921875 579.0479736328125 L 1193.220947265625 574.0369873046875 Z" fill="#D3D3D3" transform="matrix(1, 0, 0, 1, 0, -2.1316282072803006e-14)"/><path d="M 1204.3819580078125 575.9420166015625 L 1176.2020263671875 580.9520263671875 L 1171.3580322265625 580.1370239257812 L 1199.5369873046875 575.1259765625 Z" fill="#2D2626" transform="matrix(1, 0, 0, 1, 0, -2.1316282072803006e-14)"/><path d="M 1210.697998046875 577.031005859375 L 1182.51904296875 582.041015625 L 1177.675048828125 581.2260131835938 L 1205.85400390625 576.2160034179688 Z" fill="#D3D3D3" transform="matrix(1, 0, 0, 1, 0, -2.1316282072803006e-14)"/><path d="M 1217.0150146484375 578.1199951171875 L 1188.8349609375 583.1300048828125 L 1183.990966796875 582.3140258789062 L 1212.1710205078125 577.3049926757812 Z" fill="#D3D3D3" transform="matrix(1, 0, 0, 1, 0, -2.1316282072803006e-14)"/><path d="M 1223.3310546875 579.208984375 L 1195.1510009765625 584.219970703125 L 1190.3079833984375 583.4030151367188 L 1218.487060546875 578.3939819335938 Z" fill="#2D2626" transform="matrix(1, 0, 0, 1, 0, -2.1316282072803006e-14)"/><path d="M 1209.5340576171875 584.5029907226562 L 1189.9610595703125 587.9819946289062 L 1001.97900390625 556.3289794921875 L 1021.552001953125 552.8489990234375 Z" fill="#ADADAD" transform="matrix(1, 0, 0, 1, 0, -2.1316282072803006e-14)"/><path d="M 1159.073974609375 577.0679931640625 L 1147.8310546875 579.0670166015625 L 1039.8060302734375 560.8770141601562 L 1051.0489501953125 558.8779907226562 Z" fill="#C1C1C1" transform="matrix(1, 0, 0, 1, 0, -2.1316282072803006e-14)"/><path fill="#C1C1C1" d="M1191.562,582.934c3.16,0.532,3.205,1.411,0.101,1.963c-3.104,0.553-8.184,0.568-11.344,0.036&#10;&#9;&#9;&#9;&#9;&#9;&#9;l-21.405-3.604c-3.161-0.532-3.206-1.411-0.101-1.963c3.104-0.552,8.184-0.568,11.344-0.036L1191.562,582.934z" transform="matrix(1, 0, 0, 1, 0, -2.1316282072803006e-14)"/><path fill="#00118F" d="M1246.918,878.94c0,0-10.785,0.175-20.421,9.766l36.472-0.592l-0.152-9.432L1246.918,878.94z" transform="matrix(1, 0, 0, 1, 0, -1.4210854715202004e-14)" style="fill: rgb(30, 96, 80);"/><path fill="#00118F" d="M1112.334,878.97c0,0-10.786,0.035-20.546,9.5l36.477-0.117l-0.03-9.434L1112.334,878.97z" transform="matrix(1, 0, 0, 1, 0, -1.4210854715202004e-14)" style="fill: rgb(28, 92, 76);"/><path fill="#E2969B" d="M1170.428,422.255c5.978,13.153,9.375,28.312,9.375,28.312c2.551-1.134,24.123-22.481,27.721-29.722&#10;&#9;&#9;&#9;C1192.458,419.321,1179.624,420.569,1170.428,422.255z" transform="matrix(1, 0, 0, 1, 0, -1.4210854715202004e-14)"/><path d="M 1179.802979 398.234985 H 1199.490978 V 426.535986 H 1179.802979 V 398.234985 Z" fill="#E2969B" transform="matrix(1, 0, 0, 1, 0, -1.4210854715202004e-14)"/><path fill="#FCADB2" d="M1206.471,385.329c0.113,6.808-1.779,14.016-6.226,19.303c-4.522,5.376-11.29,6.862-17.65,9.143&#10;&#9;&#9;&#9;c-0.863,0.31-1.807,0.622-2.679,0.337c-0.91-0.296-1.495-1.159-2.01-1.966c-1.834-2.874-3.668-5.748-5.502-8.621&#10;&#9;&#9;&#9;c-0.932-1.46-1.871-2.935-2.467-4.562c-1.004-2.745-0.97-5.744-0.923-8.667c0.188-11.817,2.097-29.806,18.029-30.07&#10;&#9;&#9;&#9;C1197.539,360.053,1206.236,371.291,1206.471,385.329z" transform="matrix(1, 0, 0, 1, 0, -1.4210854715202004e-14)"/><path fill="#40040E" d="M1183.392,381.062c0,0-8.237,1.875-16.181,8.447c0,0-1.296-33.408,26.971-30.504&#10;&#9;&#9;&#9;c0,0,37.12,16.594,5.753,57.428C1199.935,416.433,1203.157,394.575,1183.392,381.062z" transform="matrix(1, 0, 0, 1, 0, -1.4210854715202004e-14)"/><path fill="#140C6F" d="M1245.103,526.251l-3.982,0.468c-6.288,0.739-11.984-3.759-12.724-10.047l-10.019-85.225&#10;&#9;&#9;&#9;c-0.431-3.669,2.193-6.993,5.862-7.425l0,0c11.105-1.305,21.167,6.639,22.473,17.745l8.436,71.761&#10;&#9;&#9;&#9;C1255.888,519.815,1251.39,525.512,1245.103,526.251z" transform="matrix(1, 0, 0, 1, 0, -1.4210854715202004e-14)" style="fill: rgb(42, 137, 114);"/><path fill="#FCADB2" d="M1252.04,513.912L1252.04,513.912c2.312,7.069-1.431,9.129-8.501,11.44l-87.133,25.99l-3.944-12.067&#10;&#9;&#9;&#9;l82.592-33.98C1242.124,502.984,1249.729,506.842,1252.04,513.912z" transform="matrix(1, 0, 0, 1, 0, -1.4210854715202004e-14)"/><path fill="#140C6F" d="M1255.142,510.398L1255.142,510.398c2.311,7.07-1.547,14.675-8.616,16.986l-79.574,24.984l-5.779-17.678&#10;&#9;&#9;&#9;l76.983-32.909C1245.226,499.471,1252.83,503.328,1255.142,510.398z" transform="matrix(1, 0, 0, 1, 0, -1.4210854715202004e-14)" style="fill: rgb(42, 137, 114);"/><path fill="#FCADB2" d="M1159.493,550.153c0,0,0.038,4.072-0.833,6.768c-0.872,2.695-4.346-2.433-3.671-3.985&#10;&#9;&#9;&#9;c0,0-13.623,8.476-16.163,2.395c-2.541-6.082,6.524-14.607,16.015-16.99C1154.841,538.34,1163.65,545.281,1159.493,550.153z" transform="matrix(1, 0, 0, 1, 0, -1.4210854715202004e-14)"/><path fill="none" stroke="#000000" stroke-miterlimit="10" d="M1176.293,391.471c0,2.738-1.866,9.035-5.342,9.667&#10;&#9;&#9;&#9;c0,0,0.115,2.074,5.342,2.074" transform="matrix(1, 0, 0, 1, 0, -1.4210854715202004e-14)"/><path fill="#561B1B" d="M1176.293,406.696c0,0,6.971,0,9.584-2.033c0,0-1.613,4.714-4.792,6.099&#10;&#9;&#9;&#9;S1176.293,406.696,1176.293,406.696z" transform="matrix(1, 0, 0, 1, 0, -1.4210854715202004e-14)"/>
<g transform="matrix(1, 0, 0, 1, 0, -7.105427357601002e-15)">
		<g>
			<path d="M 413.7919921875 197.00900268554688 L 400.3819885253906 183.5989990234375 L 403.2659912109375 180.71499633789062 L 412.625 190.0749969482422 L 419.93798828125 175.02099609375 L 445.322998046875 175.02099609375 L 445.322998046875 179.0989990234375 L 422.49200439453125 179.0989990234375 Z" fill="#7F7F7F" style="fill-opacity: 1; fill: url('#gradient-34');"/>
		</g>
		<g>
			<path fill="#7F7F7F" d="M530.306,110.959c-0.98-1.053-1.47-2.561-1.47-4.522v-9.535c0-1.962,0.49-3.469,1.47-4.522&#10;&#9;&#9;&#9;&#9;c0.981-1.053,2.416-1.581,4.305-1.581c1.888,0,3.324,0.527,4.304,1.581c0.981,1.053,1.471,2.56,1.471,4.522v9.535&#10;&#9;&#9;&#9;&#9;c0,1.961-0.49,3.469-1.471,4.522c-0.98,1.054-2.417,1.58-4.304,1.58C532.721,112.54,531.287,112.013,530.306,110.959z&#10;&#9;&#9;&#9;&#9; M536.572,106.709V96.63c0-1.598-0.654-2.398-1.962-2.398s-1.961,0.8-1.961,2.398v10.079c0,1.599,0.654,2.397,1.961,2.397&#10;&#9;&#9;&#9;&#9;S536.572,108.309,536.572,106.709z M548.449,91.345h3.814l-14.765,38.138h-3.813L548.449,91.345z M547.032,128.449&#10;&#9;&#9;&#9;&#9;c-0.98-1.053-1.471-2.561-1.471-4.522v-9.534c0-1.962,0.49-3.469,1.471-4.523c0.981-1.053,2.415-1.58,4.304-1.58&#10;&#9;&#9;&#9;&#9;c1.889,0,3.324,0.527,4.304,1.58c0.981,1.054,1.471,2.561,1.471,4.523v9.534c0,1.961-0.49,3.469-1.471,4.522&#10;&#9;&#9;&#9;&#9;c-0.98,1.052-2.416,1.58-4.304,1.58C549.447,130.029,548.013,129.501,547.032,128.449z M553.298,124.199V114.12&#10;&#9;&#9;&#9;&#9;c0-1.599-0.654-2.397-1.962-2.397c-1.307,0-1.961,0.799-1.961,2.397v10.079c0,1.599,0.654,2.397,1.961,2.397&#10;&#9;&#9;&#9;&#9;C552.645,126.596,553.298,125.798,553.298,124.199z" style="fill-opacity: 1; fill: url('#gradient-35');"/>
		</g>
		<g>
			<path fill="#7F7F7F" d="M185.562,583.42h-7.447v-4.335h7.447v-7.503h4.335v7.503h7.447v4.335h-7.447v7.612h-4.335V583.42z" style="fill-opacity: 1; fill: url('#gradient-36');"/>
		</g>
		<g>
			<path fill="#7F7F7F" d="M248.244,780.356l-5.534-5.535l3.222-3.221l5.534,5.534l5.576-5.575l3.221,3.222l-5.576,5.575&#10;&#9;&#9;&#9;&#9;l5.535,5.534L257,789.112l-5.535-5.535l-5.658,5.658l-3.221-3.222L248.244,780.356z" style="fill-opacity: 1; fill: url('#gradient-37');"/>
		</g>
		<g>
			<path fill="#7F7F7F" d="M292.853,295.675h18.834v8.561h-18.834V295.675z" style="fill-opacity: 1; fill: url('#gradient-38');"/>
		</g>
		<g>
			<defs>
				<path id="SVGID_1_" d="M669.297,226.571c0.25,7.73,0,558.74,0,558.74s-101.513,167.79-218.966,36.914&#10;&#9;&#9;&#9;&#9;&#9;c0,0-125.842-8.39-110.741-129.198c0,0-75.505-82.217-11.745-162.756c0,0-20.135-98.996,57.048-137.588&#10;&#9;&#9;&#9;&#9;&#9;c0,0-18.457-114.097,88.929-142.622c0,0,10.067-75.505,92.285-80.539C566.106,169.522,663.005,31.935,669.297,226.571z"/>
			</defs>
			<clipPath id="SVGID_2_">
				<use overflow="visible" xlink:href="#SVGID_1_"/>
			</clipPath>
			<path clip-path="url(#SVGID_2_)" fill="#8E8E8E" d="M669.297,226.571c0.25,7.73,0,558.74,0,558.74&#10;&#9;&#9;&#9;&#9;s-101.513,167.79-218.966,36.914c0,0-125.842-8.39-110.741-129.198c0,0-75.505-82.217-11.745-162.756&#10;&#9;&#9;&#9;&#9;c0,0-20.135-98.996,57.048-137.588c0,0-18.457-114.097,88.929-142.622c0,0,10.067-75.505,92.285-80.539&#10;&#9;&#9;&#9;&#9;C566.106,169.522,663.005,31.935,669.297,226.571z" style="fill-opacity: 1; fill: url('#gradient-39');" transform="matrix(1, 0, 0, 1, 0, 0)"/>
			<g clip-path="url(#SVGID_2_)">
				<path fill="#757575" d="M669.385,538.789H601.86c-11.936,0-21.646,9.711-21.646,21.647v1.169c0,8.076-6.57,14.647-14.646,14.647&#10;&#9;&#9;&#9;&#9;&#9;h-15.085c-8.076,0-14.646-6.571-14.646-14.647v-56.779c0-1.933-1.567-3.5-3.5-3.5s-3.5,1.567-3.5,3.5v56.779&#10;&#9;&#9;&#9;&#9;&#9;c0,11.937,9.711,21.647,21.646,21.647h15.085c11.936,0,21.646-9.711,21.646-21.647v-1.169c0-8.076,6.57-14.647,14.646-14.647&#10;&#9;&#9;&#9;&#9;&#9;h67.523C669.384,543.459,669.384,541.125,669.385,538.789z" style="fill-opacity: 1; fill: url('#gradient-40');"/>
				<path fill="#757575" d="M471.275,471.934h112.438c1.933,0,3.5-1.567,3.5-3.5s-1.567-3.5-3.5-3.5H471.275&#10;&#9;&#9;&#9;&#9;&#9;c-8.076,0-14.646-6.571-14.646-14.647v-26.691c0-11.936-9.711-21.646-21.647-21.646h-57.814c-3.632,2.195-7.013,4.536-10.167,7&#10;&#9;&#9;&#9;&#9;&#9;h67.981c8.076,0,14.647,6.57,14.647,14.646v26.691C449.628,462.223,459.339,471.934,471.275,471.934z" style="fill-opacity: 1; fill: url('#gradient-41');"/>
				<path fill="#757575" d="M669.406,345.052H540.849c-11.936,0-21.646,9.71-21.646,21.646v65.342c0,1.933,1.567,3.5,3.5,3.5&#10;&#9;&#9;&#9;&#9;&#9;s3.5-1.567,3.5-3.5v-65.342c0-8.076,6.57-14.646,14.646-14.646h128.558C669.407,349.695,669.406,347.363,669.406,345.052z" style="fill-opacity: 1; fill: url('#gradient-42');"/>
				<path fill="#757575" d="M466.022,279.386c8.076,0,14.646,6.57,14.646,14.646v51.308c0,1.933,1.567,3.5,3.5,3.5&#10;&#9;&#9;&#9;&#9;&#9;s3.5-1.567,3.5-3.5v-51.308c0-11.936-9.711-21.646-21.646-21.646h-31.578c-3.333,2.225-6.457,4.562-9.376,7H466.022z" style="fill-opacity: 1; fill: url('#gradient-43');"/>
				<path fill="#757575" d="M669.395,297.955h-92.153c-8.076,0-14.646-6.57-14.646-14.646v-61.061c0-1.933-1.567-3.5-3.5-3.5&#10;&#9;&#9;&#9;&#9;&#9;s-3.5,1.567-3.5,3.5v61.061c0,11.936,9.711,21.646,21.646,21.646h92.156C669.397,302.578,669.396,300.241,669.395,297.955z" style="fill-opacity: 1; fill: url('#gradient-44');"/>
				<path fill="#757575" d="M601.781,156.694c8.076,0,14.647,6.571,14.647,14.647v80.877c0,1.933,1.567,3.5,3.5,3.5&#10;&#9;&#9;&#9;&#9;&#9;s3.5-1.567,3.5-3.5v-80.877c0-11.936-9.711-21.647-21.647-21.647h-14.199c-2.422,2.349-4.707,4.712-6.819,7H601.781z" style="fill-opacity: 1; fill: url('#gradient-45');"/>
				<g>
					<path fill="#757575" d="M601.781,435.541H499.154c-1.933,0-3.5-1.567-3.5-3.5s1.567-3.5,3.5-3.5h102.627&#10;&#9;&#9;&#9;&#9;&#9;&#9;c8.076,0,14.647-6.57,14.647-14.646v-25.739c0-1.933,1.567-3.5,3.5-3.5s3.5,1.567,3.5,3.5v25.739&#10;&#9;&#9;&#9;&#9;&#9;&#9;C623.428,425.83,613.717,435.541,601.781,435.541z" style="fill-opacity: 1; fill: url('#gradient-46');"/>
				</g>
				<g>
					<path fill="#757575" d="M614.754,508.326H499.154c-1.933,0-3.5-1.566-3.5-3.5c0-1.933,1.567-3.5,3.5-3.5h115.601&#10;&#9;&#9;&#9;&#9;&#9;&#9;c1.933,0,3.5,1.567,3.5,3.5C618.254,506.76,616.687,508.326,614.754,508.326z" style="fill-opacity: 1; fill: url('#gradient-47');"/>
				</g>
				<path fill="#757575" d="M563.041,671.805c0-1.933-1.567-3.5-3.5-3.5H437.023c-8.076,0-14.646-6.57-14.646-14.646V524.436&#10;&#9;&#9;&#9;&#9;&#9;c0-11.936-9.711-21.646-21.647-21.646h-69.624c-1.933,0-3.5,1.567-3.5,3.5c0,1.934,1.567,3.5,3.5,3.5h69.624&#10;&#9;&#9;&#9;&#9;&#9;c8.076,0,14.647,6.57,14.647,14.646v129.223c0,11.936,9.711,21.646,21.646,21.646h122.518&#10;&#9;&#9;&#9;&#9;&#9;C561.473,675.305,563.041,673.738,563.041,671.805z" style="fill-opacity: 1; fill: url('#gradient-48');"/>
				<path fill="#757575" d="M669.344,671.023c0.001-2.312,0.001-4.646,0.002-7h-31.272c-8.076,0-14.646-6.571-14.646-14.647v-10.803&#10;&#9;&#9;&#9;&#9;&#9;c0-11.936-9.711-21.646-21.647-21.646H464.203c-1.933,0-3.5,1.566-3.5,3.5c0,1.933,1.567,3.5,3.5,3.5h137.578&#10;&#9;&#9;&#9;&#9;&#9;c8.076,0,14.647,6.57,14.647,14.646v10.803c0,11.937,9.711,21.647,21.646,21.647H669.344z" style="fill-opacity: 1; fill: url('#gradient-49');"/>
				<path fill="#757575" d="M463.513,743.255v-17.876c0-1.933-1.567-3.5-3.5-3.5s-3.5,1.567-3.5,3.5v17.876&#10;&#9;&#9;&#9;&#9;&#9;c0,8.076-6.57,14.646-14.646,14.646H345.34c0.926,2.417,1.934,4.748,3.013,7h93.514&#10;&#9;&#9;&#9;&#9;&#9;C453.802,764.901,463.513,755.19,463.513,743.255z" style="fill-opacity: 1; fill: url('#gradient-50');"/>
				<path fill="#757575" d="M484.92,690.901H372.431c-8.076,0-14.646-6.57-14.646-14.646v-55.667&#10;&#9;&#9;&#9;&#9;&#9;c0-11.936-9.711-21.646-21.646-21.646h-33.684c-0.138,2.354-0.197,4.688-0.183,7h33.866c8.076,0,14.646,6.57,14.646,14.646&#10;&#9;&#9;&#9;&#9;&#9;v55.667c0,11.936,9.711,21.646,21.646,21.646H484.92c8.076,0,14.646,6.571,14.646,14.647v78.187c0,1.933,1.567,3.5,3.5,3.5&#10;&#9;&#9;&#9;&#9;&#9;s3.5-1.567,3.5-3.5v-78.187C506.567,700.612,496.856,690.901,484.92,690.901z" style="fill-opacity: 1; fill: url('#gradient-51');"/>
				<path fill="#757575" d="M669.314,750.724H565.517c-1.933,0-3.5,1.566-3.5,3.5c0,1.933,1.567,3.5,3.5,3.5h103.794&#10;&#9;&#9;&#9;&#9;&#9;C669.312,755.488,669.313,753.155,669.314,750.724z" style="fill-opacity: 1; fill: url('#gradient-52');"/>
				<path fill="#757575" d="M610.269,827.059v-43.935c0-1.934-1.567-3.5-3.5-3.5s-3.5,1.566-3.5,3.5v43.935&#10;&#9;&#9;&#9;&#9;&#9;c0,8.076-6.57,14.646-14.646,14.646h-62.181c-8.076,0-14.647-6.57-14.647-14.646c0-11.937-9.711-21.646-21.646-21.646h-99.76&#10;&#9;&#9;&#9;&#9;&#9;c-1.173,0-2.206,0.582-2.841,1.468c3.371,2.035,6.773,3.879,10.161,5.532h92.44c8.076,0,14.646,6.57,14.646,14.646&#10;&#9;&#9;&#9;&#9;&#9;c0,11.936,9.711,21.646,21.647,21.646h62.181C600.558,848.705,610.269,838.994,610.269,827.059z" style="fill-opacity: 1; fill: url('#gradient-53');"/>
			<path d="M 638.7554931640625 296.4287414550781" style="fill-opacity: 1; stroke: rgb(0, 0, 0); stroke-opacity: 1; stroke-width: 0; paint-order: fill;"/></g>
			<g clip-path="url(#SVGID_2_)">
				<g>
					<path fill="#F4E3D7" d="M669.385,533.789H601.86c-11.936,0-21.646,9.711-21.646,21.647v1.169&#10;&#9;&#9;&#9;&#9;&#9;&#9;c0,8.076-6.57,14.647-14.646,14.647h-15.085c-8.076,0-14.646-6.571-14.646-14.647v-56.779c0-1.933-1.567-3.5-3.5-3.5&#10;&#9;&#9;&#9;&#9;&#9;&#9;s-3.5,1.567-3.5,3.5v56.779c0,11.937,9.711,21.647,21.646,21.647h15.085c11.936,0,21.646-9.711,21.646-21.647v-1.169&#10;&#9;&#9;&#9;&#9;&#9;&#9;c0-8.076,6.57-14.647,14.646-14.647h67.523C669.384,538.459,669.384,536.125,669.385,533.789z" style="fill-opacity: 1; fill: url('#gradient-54');"/>
					<path fill="#F4E3D7" d="M471.275,466.934h112.438c1.933,0,3.5-1.567,3.5-3.5s-1.567-3.5-3.5-3.5H471.275&#10;&#9;&#9;&#9;&#9;&#9;&#9;c-8.076,0-14.646-6.571-14.646-14.647v-26.691c0-11.936-9.711-21.646-21.647-21.646h-57.814c-3.632,2.195-7.013,4.536-10.167,7&#10;&#9;&#9;&#9;&#9;&#9;&#9;h67.981c8.076,0,14.647,6.57,14.647,14.646v26.691C449.628,457.223,459.339,466.934,471.275,466.934z" style="fill-opacity: 1; fill: url('#gradient-55');"/>
					<path fill="#F4E3D7" d="M669.406,340.052H540.849c-11.936,0-21.646,9.71-21.646,21.646v65.342c0,1.933,1.567,3.5,3.5,3.5&#10;&#9;&#9;&#9;&#9;&#9;&#9;s3.5-1.567,3.5-3.5v-65.342c0-8.076,6.57-14.646,14.646-14.646h128.558C669.407,344.695,669.406,342.363,669.406,340.052z" style="fill-opacity: 1; fill: url('#gradient-56');"/>
					<path fill="#F4E3D7" d="M466.022,274.386c8.076,0,14.646,6.57,14.646,14.646v51.308c0,1.933,1.567,3.5,3.5,3.5&#10;&#9;&#9;&#9;&#9;&#9;&#9;s3.5-1.567,3.5-3.5v-51.308c0-11.936-9.711-21.646-21.646-21.646h-31.578c-3.333,2.225-6.457,4.562-9.376,7H466.022z" style="fill-opacity: 1; fill: url('#gradient-57');"/>
					<path fill="#F4E3D7" d="M669.395,292.955h-92.153c-8.076,0-14.646-6.57-14.646-14.646v-61.061c0-1.933-1.567-3.5-3.5-3.5&#10;&#9;&#9;&#9;&#9;&#9;&#9;s-3.5,1.567-3.5,3.5v61.061c0,11.936,9.711,21.646,21.646,21.646h92.156C669.397,297.578,669.396,295.241,669.395,292.955z" style="fill-opacity: 1; fill: url('#gradient-58');"/>
					<path fill="#F4E3D7" d="M601.781,151.694c8.076,0,14.647,6.571,14.647,14.647v80.877c0,1.933,1.567,3.5,3.5,3.5&#10;&#9;&#9;&#9;&#9;&#9;&#9;s3.5-1.567,3.5-3.5v-80.877c0-11.936-9.711-21.647-21.647-21.647h-14.199c-2.422,2.349-4.707,4.712-6.819,7H601.781z" style="fill-opacity: 1; fill: url('#gradient-59');"/>
					<g>
						<path fill="#F4E3D7" d="M601.781,430.541H499.154c-1.933,0-3.5-1.567-3.5-3.5s1.567-3.5,3.5-3.5h102.627&#10;&#9;&#9;&#9;&#9;&#9;&#9;&#9;c8.076,0,14.647-6.57,14.647-14.646v-25.739c0-1.933,1.567-3.5,3.5-3.5s3.5,1.567,3.5,3.5v25.739&#10;&#9;&#9;&#9;&#9;&#9;&#9;&#9;C623.428,420.83,613.717,430.541,601.781,430.541z" style="fill-opacity: 1; fill: url('#gradient-60');"/>
					</g>
					<g>
						<path fill="#F4E3D7" d="M614.754,503.326H499.154c-1.933,0-3.5-1.566-3.5-3.5c0-1.933,1.567-3.5,3.5-3.5h115.601&#10;&#9;&#9;&#9;&#9;&#9;&#9;&#9;c1.933,0,3.5,1.567,3.5,3.5C618.254,501.76,616.687,503.326,614.754,503.326z" style="fill-opacity: 1; fill: url('#gradient-61');"/>
					</g>
					<path fill="#F4E3D7" d="M563.041,666.805c0-1.933-1.567-3.5-3.5-3.5H437.023c-8.076,0-14.646-6.57-14.646-14.646V519.436&#10;&#9;&#9;&#9;&#9;&#9;&#9;c0-11.936-9.711-21.646-21.647-21.646h-69.624c-1.933,0-3.5,1.567-3.5,3.5c0,1.934,1.567,3.5,3.5,3.5h69.624&#10;&#9;&#9;&#9;&#9;&#9;&#9;c8.076,0,14.647,6.57,14.647,14.646v129.223c0,11.936,9.711,21.646,21.646,21.646h122.518&#10;&#9;&#9;&#9;&#9;&#9;&#9;C561.473,670.305,563.041,668.738,563.041,666.805z" style="fill-opacity: 1; fill: url('#gradient-62');"/>
					<path fill="#F4E3D7" d="M669.344,666.023c0.001-2.312,0.001-4.646,0.002-7h-31.272c-8.076,0-14.646-6.571-14.646-14.647&#10;&#9;&#9;&#9;&#9;&#9;&#9;v-10.803c0-11.936-9.711-21.646-21.647-21.646H464.203c-1.933,0-3.5,1.566-3.5,3.5c0,1.933,1.567,3.5,3.5,3.5h137.578&#10;&#9;&#9;&#9;&#9;&#9;&#9;c8.076,0,14.647,6.57,14.647,14.646v10.803c0,11.937,9.711,21.647,21.646,21.647H669.344z" style="fill-opacity: 1; fill: url('#gradient-63');"/>
					<path fill="#F4E3D7" d="M463.513,738.255v-17.876c0-1.933-1.567-3.5-3.5-3.5s-3.5,1.567-3.5,3.5v17.876&#10;&#9;&#9;&#9;&#9;&#9;&#9;c0,8.076-6.57,14.646-14.646,14.646H345.34c0.926,2.417,1.934,4.748,3.013,7h93.514&#10;&#9;&#9;&#9;&#9;&#9;&#9;C453.802,759.901,463.513,750.19,463.513,738.255z" style="fill-opacity: 1; fill: url('#gradient-64');"/>
					<path fill="#F4E3D7" d="M484.92,685.901H372.431c-8.076,0-14.646-6.57-14.646-14.646v-55.667&#10;&#9;&#9;&#9;&#9;&#9;&#9;c0-11.936-9.711-21.646-21.646-21.646h-33.684c-0.138,2.354-0.197,4.688-0.183,7h33.866c8.076,0,14.646,6.57,14.646,14.646&#10;&#9;&#9;&#9;&#9;&#9;&#9;v55.667c0,11.936,9.711,21.646,21.646,21.646H484.92c8.076,0,14.646,6.571,14.646,14.647v78.187c0,1.933,1.567,3.5,3.5,3.5&#10;&#9;&#9;&#9;&#9;&#9;&#9;s3.5-1.567,3.5-3.5v-78.187C506.567,695.612,496.856,685.901,484.92,685.901z" style="fill-opacity: 1; fill: url('#gradient-65');"/>
					<path fill="#F4E3D7" d="M669.314,745.724H565.517c-1.933,0-3.5,1.566-3.5,3.5c0,1.933,1.567,3.5,3.5,3.5h103.794&#10;&#9;&#9;&#9;&#9;&#9;&#9;C669.312,750.488,669.313,748.155,669.314,745.724z" style="fill-opacity: 1; fill: url('#gradient-66');"/>
					<path fill="#F4E3D7" d="M610.269,822.059v-43.935c0-1.934-1.567-3.5-3.5-3.5s-3.5,1.566-3.5,3.5v43.935&#10;&#9;&#9;&#9;&#9;&#9;&#9;c0,8.076-6.57,14.646-14.646,14.646h-62.181c-8.076,0-14.647-6.57-14.647-14.646c0-11.937-9.711-21.646-21.646-21.646h-99.76&#10;&#9;&#9;&#9;&#9;&#9;&#9;c-1.173,0-2.206,0.582-2.841,1.468c3.371,2.035,6.773,3.879,10.161,5.532h92.44c8.076,0,14.646,6.57,14.646,14.646&#10;&#9;&#9;&#9;&#9;&#9;&#9;c0,11.936,9.711,21.646,21.647,21.646h62.181C600.558,843.705,610.269,833.994,610.269,822.059z" style="fill-opacity: 1; fill: url('#gradient-67');"/>
				</g>
			</g>
		<path d="M 585.0673217773438 224.18174743652344 L 585.0673217773438 224.18174743652344 L 589.0442504882812 253.34567260742188" style="fill-opacity: 1; stroke: rgb(0, 0, 0); stroke-opacity: 1; stroke-width: 0; paint-order: fill;"/></g>
	</g></svg>